<mxfile host="app.diagrams.net" modified="2024-04-18T17:43:45.295Z" agent="Mozilla/5.0 (Windows NT 10.0; Win64; x64) AppleWebKit/537.36 (KHTML, like Gecko) Chrome/123.0.0.0 Safari/537.36" etag="4yTCXWk2H8m4co6qD7k7" version="24.2.5" type="google">
  <diagram name="Trang-1" id="xxj05rc8MCnEarDpaFAj">
    <mxGraphModel grid="1" page="1" gridSize="10" guides="1" tooltips="1" connect="1" arrows="1" fold="1" pageScale="1" pageWidth="827" pageHeight="1169" math="0" shadow="0">
      <root>
        <mxCell id="0" />
        <mxCell id="1" parent="0" />
        <UserObject label="" plantUmlData="{&quot;data&quot;:&quot;@startuml\nclass FaceRecognitionApp {\n    - faceRecognitionController: FaceRecognitionController\n    + main(args: String[]): void\n}\n\nclass FaceRecognitionController {\n    - faceRecognitionService: FaceRecognitionService\n    - camera: VideoCapture\n    - isRunning: bool\n    + FaceRecognitionController()\n    + startRecognition(): void\n    + stopRecognition(): void\n    + processFrame(): void\n    + isRunning(): bool\n}\n\nclass FaceRecognitionService {\n    - faceCascade: CascadeClassifier\n    + FaceRecognitionService(cascadeFilePath: String)\n    + detectFaces(image: Mat): FaceDetectionResult\n}\n\nclass ImageLoader {\n    + loadImage(imagePath: String): Mat\n}\n\nclass FaceDetectionResult {\n    - faces: List&lt;Rect&gt;\n    + FaceDetectionResult(faces: List&lt;Rect&gt;)\n    + getFaces(): List&lt;Rect&gt;\n    + getFaceCount(): int\n    + drawFaces(image: Mat): void\n}\n\nclass Rect {\n    - x: int\n    - y: int\n    - width: int\n    - height: int\n    + Rect()\n    + Rect(x: int, y: int, width: int, height: int)\n    + area(): int\n    + clone(): Rect\n    + contains(p: Point): bool\n    + empty(): bool\n    + size(): Size\n    + tl(): Point\n    + br(): Point\n}\n\nclass Point {\n    - x: int\n    - y: int\n    + Point()\n    + Point(x: int, y: int)\n}\n\nclass Size {\n    - width: int\n    - height: int\n    + Size()\n    + Size(width: int, height: int)\n}\n\nclass Mat {\n    // Đối tượng ma trận của OpenCV\n    + Mat()\n    + Mat(size: Size, type: int)\n}\n\nclass CascadeClassifier {\n    + CascadeClassifier(filePath: String): void\n    + detectMultiScale(image: Mat, faces: MatOfRect): void\n    + empty(): bool\n}\n\nclass MatOfRect {\n    - data: List&lt;Rect&gt;\n    + MatOfRect()\n    + MatOfRect(Mat m)\n    + MatOfRect(Rect... a)\n    + MatOfRect(List&lt;Rect&gt; l)\n    + alloc(size: int): void\n    + fromArray(a: Rect...): MatOfRect\n    + fromList(l: List&lt;Rect&gt;): MatOfRect\n    + toArray(): Rect[]\n    + toList(): List&lt;Rect&gt;\n}\n\nclass VideoCapture {\n    - source: int\n    - isOpened: bool\n    + VideoCapture(source: int): void\n    + read(frame: Mat): bool\n    + open(source: int): bool\n    + release(): void\n}\n\nFaceRecognitionApp *-- FaceRecognitionController : has\nFaceRecognitionController *-- FaceRecognitionService : uses\nFaceRecognitionController *-- VideoCapture : uses\nFaceRecognitionService *-- FaceDetectionResult : returns\nFaceRecognitionService *-- CascadeClassifier : uses\nImageLoader *-- Mat : returns\nFaceDetectionResult *-- Rect : contains\nMatOfRect *-- Rect : contains\nCascadeClassifier *-- MatOfRect : uses\nRect *-- Point : contains\nRect *-- Size : contains\nVideoCapture *-- Mat : captures\n@enduml\n&quot;,&quot;format&quot;:&quot;svg&quot;}" id="iig4NE3-VvVeSeymeSPE-1">
          <mxCell style="shape=image;noLabel=1;verticalAlign=top;aspect=fixed;imageAspect=0;image=data:image/svg+xml,PD94bWwgdmVyc2lvbj0iMS4wIiBlbmNvZGluZz0idXMtYXNjaWkiIHN0YW5kYWxvbmU9Im5vIj8+PHN2ZyB4bWxucz0iaHR0cDovL3d3dy53My5vcmcvMjAwMC9zdmciIHhtbG5zOnhsaW5rPSJodHRwOi8vd3d3LnczLm9yZy8xOTk5L3hsaW5rIiBjb250ZW50U3R5bGVUeXBlPSJ0ZXh0L2NzcyIgaGVpZ2h0PSIxNTk3cHgiIHByZXNlcnZlQXNwZWN0UmF0aW89Im5vbmUiIHN0eWxlPSJ3aWR0aDoxMDUzcHg7aGVpZ2h0OjE1OTdweDtiYWNrZ3JvdW5kOiNGRkZGRkY7IiB2ZXJzaW9uPSIxLjEiIHZpZXdCb3g9IjAgMCAxMDUzIDE1OTciIHdpZHRoPSIxMDUzcHgiIHpvb21BbmRQYW49Im1hZ25pZnkiPjxkZWZzLz48Zz48IS0tY2xhc3MgRmFjZVJlY29nbml0aW9uQXBwLS0+PGcgaWQ9ImVsZW1fRmFjZVJlY29nbml0aW9uQXBwIj48cmVjdCBjb2RlTGluZT0iMSIgZmlsbD0iI0YxRjFGMSIgaGVpZ2h0PSI3Ny45Njg4IiBpZD0iRmFjZVJlY29nbml0aW9uQXBwIiByeD0iMi41IiByeT0iMi41IiBzdHlsZT0ic3Ryb2tlOiMxODE4MTg7c3Ryb2tlLXdpZHRoOjAuNTsiIHdpZHRoPSIzOTAiIHg9IjI2NC41IiB5PSI3Ii8+PGVsbGlwc2UgY3g9IjM5Mi4yNSIgY3k9IjIzIiBmaWxsPSIjQUREMUIyIiByeD0iMTEiIHJ5PSIxMSIgc3R5bGU9InN0cm9rZTojMTgxODE4O3N0cm9rZS13aWR0aDoxLjA7Ii8+PHBhdGggZD0iTTM4OS44NzUsMjcuMjUgTDM4OS44NzUsMjkgTDM5NC44MTI1LDI5IEwzOTQuODEyNSwyNy4yNSBMMzg5Ljg3NSwyNy4yNSBaIE0zOTAuNTYyNSwyNy45Mzc1IFEzOTAuNTYyNSwyNy45Mzc1IDM5MC41NjI1LDE4Ljc1IEwzODguODEyNSwxOC43NSBRMzg4LjgxMjUsMTguNzUgMzg4LjgxMjUsMjcuOTM3NSBMMzkwLjU2MjUsMjcuOTM3NSBaIE0zOTQuMTI1LDI3LjkzNzUgTDM5NS44NzUsMjcuOTM3NSBRMzk1Ljg3NSwyNy45Mzc1IDM5NS44NzUsMjUuMTI1IEwzOTQuMTI1LDI1LjEyNSBRMzk0LjEyNSwyNS4xMjUgMzk0LjEyNSwyNy45Mzc1IFogTTM5NC4xMjUsMTguNzUgUTM5NC4xMjUsMTguNzUgMzk0LjEyNSwyMS41NjI1IEwzOTUuODc1LDIxLjU2MjUgUTM5NS44NzUsMjEuNTYyNSAzOTUuODc1LDE4Ljc1IEwzOTQuMTI1LDE4Ljc1IFogTTM4OS44NzUsMTkuNDM3NSBMMzk0LjgxMjUsMTkuNDM3NSBMMzk0LjgxMjUsMTcuNjg3NSBMMzg5Ljg3NSwxNy42ODc1IEwzODkuODc1LDE5LjQzNzUgWiAiIGZpbGw9IiMwMDAwMDAiLz48dGV4dCBmaWxsPSIjMDAwMDAwIiBmb250LWZhbWlseT0ic2Fucy1zZXJpZiIgZm9udC1zaXplPSIxNCIgbGVuZ3RoQWRqdXN0PSJzcGFjaW5nIiB0ZXh0TGVuZ3RoPSIxMjYiIHg9IjQxMi43NSIgeT0iMjguNzQyMiI+RmFjZVJlY29nbml0aW9uQXBwPC90ZXh0PjxsaW5lIHN0eWxlPSJzdHJva2U6IzE4MTgxODtzdHJva2Utd2lkdGg6MC41OyIgeDE9IjI2NS41IiB4Mj0iNjUzLjUiIHkxPSIzOSIgeTI9IjM5Ii8+PHJlY3QgZmlsbD0ibm9uZSIgaGVpZ2h0PSI2IiBzdHlsZT0ic3Ryb2tlOiNDODI5MzA7c3Ryb2tlLXdpZHRoOjEuMDsiIHdpZHRoPSI2IiB4PSIyNzIuNSIgeT0iNDguOTkyMiIvPjx0ZXh0IGZpbGw9IiMwMDAwMDAiIGZvbnQtZmFtaWx5PSJzYW5zLXNlcmlmIiBmb250LXNpemU9IjE0IiBsZW5ndGhBZGp1c3Q9InNwYWNpbmciIHRleHRMZW5ndGg9IjM2NCIgeD0iMjg0LjUiIHk9IjU2LjIzNDQiPmZhY2VSZWNvZ25pdGlvbkNvbnRyb2xsZXI6IEZhY2VSZWNvZ25pdGlvbkNvbnRyb2xsZXI8L3RleHQ+PGxpbmUgc3R5bGU9InN0cm9rZTojMTgxODE4O3N0cm9rZS13aWR0aDowLjU7IiB4MT0iMjY1LjUiIHgyPSI2NTMuNSIgeTE9IjYxLjk4NDQiIHkyPSI2MS45ODQ0Ii8+PGVsbGlwc2UgY3g9IjI3NS41IiBjeT0iNzQuOTc2NiIgZmlsbD0iIzg0QkU4NCIgcng9IjMiIHJ5PSIzIiBzdHlsZT0ic3Ryb2tlOiMwMzgwNDg7c3Ryb2tlLXdpZHRoOjEuMDsiLz48dGV4dCBmaWxsPSIjMDAwMDAwIiBmb250LWZhbWlseT0ic2Fucy1zZXJpZiIgZm9udC1zaXplPSIxNCIgbGVuZ3RoQWRqdXN0PSJzcGFjaW5nIiB0ZXh0TGVuZ3RoPSIxODUiIHg9IjI4NC41IiB5PSI3OS4yMTg4Ij5tYWluKGFyZ3M6IFN0cmluZ1tdKTogdm9pZDwvdGV4dD48L2c+PCEtLWNsYXNzIEZhY2VSZWNvZ25pdGlvbkNvbnRyb2xsZXItLT48ZyBpZD0iZWxlbV9GYWNlUmVjb2duaXRpb25Db250cm9sbGVyIj48cmVjdCBjb2RlTGluZT0iNiIgZmlsbD0iI0YxRjFGMSIgaGVpZ2h0PSIxNjcuODc1IiBpZD0iRmFjZVJlY29nbml0aW9uQ29udHJvbGxlciIgcng9IjIuNSIgcnk9IjIuNSIgc3R5bGU9InN0cm9rZTojMTgxODE4O3N0cm9rZS13aWR0aDowLjU7IiB3aWR0aD0iMzQ4IiB4PSIyODUuNSIgeT0iMTYwIi8+PGVsbGlwc2UgY3g9IjM2Ny43NSIgY3k9IjE3NiIgZmlsbD0iI0FERDFCMiIgcng9IjExIiByeT0iMTEiIHN0eWxlPSJzdHJva2U6IzE4MTgxODtzdHJva2Utd2lkdGg6MS4wOyIvPjxwYXRoIGQ9Ik0zNjUuMzc1LDE4MC4yNSBMMzY1LjM3NSwxODIgTDM3MC4zMTI1LDE4MiBMMzcwLjMxMjUsMTgwLjI1IEwzNjUuMzc1LDE4MC4yNSBaIE0zNjYuMDYyNSwxODAuOTM3NSBRMzY2LjA2MjUsMTgwLjkzNzUgMzY2LjA2MjUsMTcxLjc1IEwzNjQuMzEyNSwxNzEuNzUgUTM2NC4zMTI1LDE3MS43NSAzNjQuMzEyNSwxODAuOTM3NSBMMzY2LjA2MjUsMTgwLjkzNzUgWiBNMzY5LjYyNSwxODAuOTM3NSBMMzcxLjM3NSwxODAuOTM3NSBRMzcxLjM3NSwxODAuOTM3NSAzNzEuMzc1LDE3OC4xMjUgTDM2OS42MjUsMTc4LjEyNSBRMzY5LjYyNSwxNzguMTI1IDM2OS42MjUsMTgwLjkzNzUgWiBNMzY5LjYyNSwxNzEuNzUgUTM2OS42MjUsMTcxLjc1IDM2OS42MjUsMTc0LjU2MjUgTDM3MS4zNzUsMTc0LjU2MjUgUTM3MS4zNzUsMTc0LjU2MjUgMzcxLjM3NSwxNzEuNzUgTDM2OS42MjUsMTcxLjc1IFogTTM2NS4zNzUsMTcyLjQzNzUgTDM3MC4zMTI1LDE3Mi40Mzc1IEwzNzAuMzEyNSwxNzAuNjg3NSBMMzY1LjM3NSwxNzAuNjg3NSBMMzY1LjM3NSwxNzIuNDM3NSBaICIgZmlsbD0iIzAwMDAwMCIvPjx0ZXh0IGZpbGw9IiMwMDAwMDAiIGZvbnQtZmFtaWx5PSJzYW5zLXNlcmlmIiBmb250LXNpemU9IjE0IiBsZW5ndGhBZGp1c3Q9InNwYWNpbmciIHRleHRMZW5ndGg9IjE3NSIgeD0iMzg4LjI1IiB5PSIxODEuNzQyMiI+RmFjZVJlY29nbml0aW9uQ29udHJvbGxlcjwvdGV4dD48bGluZSBzdHlsZT0ic3Ryb2tlOiMxODE4MTg7c3Ryb2tlLXdpZHRoOjAuNTsiIHgxPSIyODYuNSIgeDI9IjYzMi41IiB5MT0iMTkyIiB5Mj0iMTkyIi8+PHJlY3QgZmlsbD0ibm9uZSIgaGVpZ2h0PSI2IiBzdHlsZT0ic3Ryb2tlOiNDODI5MzA7c3Ryb2tlLXdpZHRoOjEuMDsiIHdpZHRoPSI2IiB4PSIyOTMuNSIgeT0iMjAxLjk5MjIiLz48dGV4dCBmaWxsPSIjMDAwMDAwIiBmb250LWZhbWlseT0ic2Fucy1zZXJpZiIgZm9udC1zaXplPSIxNCIgbGVuZ3RoQWRqdXN0PSJzcGFjaW5nIiB0ZXh0TGVuZ3RoPSIzMjIiIHg9IjMwNS41IiB5PSIyMDkuMjM0NCI+ZmFjZVJlY29nbml0aW9uU2VydmljZTogRmFjZVJlY29nbml0aW9uU2VydmljZTwvdGV4dD48cmVjdCBmaWxsPSJub25lIiBoZWlnaHQ9IjYiIHN0eWxlPSJzdHJva2U6I0M4MjkzMDtzdHJva2Utd2lkdGg6MS4wOyIgd2lkdGg9IjYiIHg9IjI5My41IiB5PSIyMTYuOTc2NiIvPjx0ZXh0IGZpbGw9IiMwMDAwMDAiIGZvbnQtZmFtaWx5PSJzYW5zLXNlcmlmIiBmb250LXNpemU9IjE0IiBsZW5ndGhBZGp1c3Q9InNwYWNpbmciIHRleHRMZW5ndGg9IjE0MSIgeD0iMzA1LjUiIHk9IjIyNC4yMTg4Ij5jYW1lcmE6IFZpZGVvQ2FwdHVyZTwvdGV4dD48cmVjdCBmaWxsPSJub25lIiBoZWlnaHQ9IjYiIHN0eWxlPSJzdHJva2U6I0M4MjkzMDtzdHJva2Utd2lkdGg6MS4wOyIgd2lkdGg9IjYiIHg9IjI5My41IiB5PSIyMzEuOTYwOSIvPjx0ZXh0IGZpbGw9IiMwMDAwMDAiIGZvbnQtZmFtaWx5PSJzYW5zLXNlcmlmIiBmb250LXNpemU9IjE0IiBsZW5ndGhBZGp1c3Q9InNwYWNpbmciIHRleHRMZW5ndGg9IjEwNSIgeD0iMzA1LjUiIHk9IjIzOS4yMDMxIj5pc1J1bm5pbmc6IGJvb2w8L3RleHQ+PGxpbmUgc3R5bGU9InN0cm9rZTojMTgxODE4O3N0cm9rZS13aWR0aDowLjU7IiB4MT0iMjg2LjUiIHgyPSI2MzIuNSIgeTE9IjI0NC45NTMxIiB5Mj0iMjQ0Ljk1MzEiLz48ZWxsaXBzZSBjeD0iMjk2LjUiIGN5PSIyNTcuOTQ1MyIgZmlsbD0iIzg0QkU4NCIgcng9IjMiIHJ5PSIzIiBzdHlsZT0ic3Ryb2tlOiMwMzgwNDg7c3Ryb2tlLXdpZHRoOjEuMDsiLz48dGV4dCBmaWxsPSIjMDAwMDAwIiBmb250LWZhbWlseT0ic2Fucy1zZXJpZiIgZm9udC1zaXplPSIxNCIgbGVuZ3RoQWRqdXN0PSJzcGFjaW5nIiB0ZXh0TGVuZ3RoPSIxOTEiIHg9IjMwNS41IiB5PSIyNjIuMTg3NSI+RmFjZVJlY29nbml0aW9uQ29udHJvbGxlcigpPC90ZXh0PjxlbGxpcHNlIGN4PSIyOTYuNSIgY3k9IjI3Mi45Mjk3IiBmaWxsPSIjODRCRTg0IiByeD0iMyIgcnk9IjMiIHN0eWxlPSJzdHJva2U6IzAzODA0ODtzdHJva2Utd2lkdGg6MS4wOyIvPjx0ZXh0IGZpbGw9IiMwMDAwMDAiIGZvbnQtZmFtaWx5PSJzYW5zLXNlcmlmIiBmb250LXNpemU9IjE0IiBsZW5ndGhBZGp1c3Q9InNwYWNpbmciIHRleHRMZW5ndGg9IjE3MCIgeD0iMzA1LjUiIHk9IjI3Ny4xNzE5Ij5zdGFydFJlY29nbml0aW9uKCk6IHZvaWQ8L3RleHQ+PGVsbGlwc2UgY3g9IjI5Ni41IiBjeT0iMjg3LjkxNDEiIGZpbGw9IiM4NEJFODQiIHJ4PSIzIiByeT0iMyIgc3R5bGU9InN0cm9rZTojMDM4MDQ4O3N0cm9rZS13aWR0aDoxLjA7Ii8+PHRleHQgZmlsbD0iIzAwMDAwMCIgZm9udC1mYW1pbHk9InNhbnMtc2VyaWYiIGZvbnQtc2l6ZT0iMTQiIGxlbmd0aEFkanVzdD0ic3BhY2luZyIgdGV4dExlbmd0aD0iMTYzIiB4PSIzMDUuNSIgeT0iMjkyLjE1NjMiPnN0b3BSZWNvZ25pdGlvbigpOiB2b2lkPC90ZXh0PjxlbGxpcHNlIGN4PSIyOTYuNSIgY3k9IjMwMi44OTg0IiBmaWxsPSIjODRCRTg0IiByeD0iMyIgcnk9IjMiIHN0eWxlPSJzdHJva2U6IzAzODA0ODtzdHJva2Utd2lkdGg6MS4wOyIvPjx0ZXh0IGZpbGw9IiMwMDAwMDAiIGZvbnQtZmFtaWx5PSJzYW5zLXNlcmlmIiBmb250LXNpemU9IjE0IiBsZW5ndGhBZGp1c3Q9InNwYWNpbmciIHRleHRMZW5ndGg9IjE0MyIgeD0iMzA1LjUiIHk9IjMwNy4xNDA2Ij5wcm9jZXNzRnJhbWUoKTogdm9pZDwvdGV4dD48ZWxsaXBzZSBjeD0iMjk2LjUiIGN5PSIzMTcuODgyOCIgZmlsbD0iIzg0QkU4NCIgcng9IjMiIHJ5PSIzIiBzdHlsZT0ic3Ryb2tlOiMwMzgwNDg7c3Ryb2tlLXdpZHRoOjEuMDsiLz48dGV4dCBmaWxsPSIjMDAwMDAwIiBmb250LWZhbWlseT0ic2Fucy1zZXJpZiIgZm9udC1zaXplPSIxNCIgbGVuZ3RoQWRqdXN0PSJzcGFjaW5nIiB0ZXh0TGVuZ3RoPSIxMjEiIHg9IjMwNS41IiB5PSIzMjIuMTI1Ij5pc1J1bm5pbmcoKTogYm9vbDwvdGV4dD48L2c+PCEtLWNsYXNzIEZhY2VSZWNvZ25pdGlvblNlcnZpY2UtLT48ZyBpZD0iZWxlbV9GYWNlUmVjb2duaXRpb25TZXJ2aWNlIj48cmVjdCBjb2RlTGluZT0iMTciIGZpbGw9IiNGMUYxRjEiIGhlaWdodD0iOTIuOTUzMSIgaWQ9IkZhY2VSZWNvZ25pdGlvblNlcnZpY2UiIHJ4PSIyLjUiIHJ5PSIyLjUiIHN0eWxlPSJzdHJva2U6IzE4MTgxODtzdHJva2Utd2lkdGg6MC41OyIgd2lkdGg9IjM1NyIgeD0iMTEzIiB5PSI0MjUuNSIvPjxlbGxpcHNlIGN4PSIyMTAuMjUiIGN5PSI0NDEuNSIgZmlsbD0iI0FERDFCMiIgcng9IjExIiByeT0iMTEiIHN0eWxlPSJzdHJva2U6IzE4MTgxODtzdHJva2Utd2lkdGg6MS4wOyIvPjxwYXRoIGQ9Ik0yMDcuODc1LDQ0NS43NSBMMjA3Ljg3NSw0NDcuNSBMMjEyLjgxMjUsNDQ3LjUgTDIxMi44MTI1LDQ0NS43NSBMMjA3Ljg3NSw0NDUuNzUgWiBNMjA4LjU2MjUsNDQ2LjQzNzUgUTIwOC41NjI1LDQ0Ni40Mzc1IDIwOC41NjI1LDQzNy4yNSBMMjA2LjgxMjUsNDM3LjI1IFEyMDYuODEyNSw0MzcuMjUgMjA2LjgxMjUsNDQ2LjQzNzUgTDIwOC41NjI1LDQ0Ni40Mzc1IFogTTIxMi4xMjUsNDQ2LjQzNzUgTDIxMy44NzUsNDQ2LjQzNzUgUTIxMy44NzUsNDQ2LjQzNzUgMjEzLjg3NSw0NDMuNjI1IEwyMTIuMTI1LDQ0My42MjUgUTIxMi4xMjUsNDQzLjYyNSAyMTIuMTI1LDQ0Ni40Mzc1IFogTTIxMi4xMjUsNDM3LjI1IFEyMTIuMTI1LDQzNy4yNSAyMTIuMTI1LDQ0MC4wNjI1IEwyMTMuODc1LDQ0MC4wNjI1IFEyMTMuODc1LDQ0MC4wNjI1IDIxMy44NzUsNDM3LjI1IEwyMTIuMTI1LDQzNy4yNSBaIE0yMDcuODc1LDQzNy45Mzc1IEwyMTIuODEyNSw0MzcuOTM3NSBMMjEyLjgxMjUsNDM2LjE4NzUgTDIwNy44NzUsNDM2LjE4NzUgTDIwNy44NzUsNDM3LjkzNzUgWiAiIGZpbGw9IiMwMDAwMDAiLz48dGV4dCBmaWxsPSIjMDAwMDAwIiBmb250LWZhbWlseT0ic2Fucy1zZXJpZiIgZm9udC1zaXplPSIxNCIgbGVuZ3RoQWRqdXN0PSJzcGFjaW5nIiB0ZXh0TGVuZ3RoPSIxNTQiIHg9IjIzMC43NSIgeT0iNDQ3LjI0MjIiPkZhY2VSZWNvZ25pdGlvblNlcnZpY2U8L3RleHQ+PGxpbmUgc3R5bGU9InN0cm9rZTojMTgxODE4O3N0cm9rZS13aWR0aDowLjU7IiB4MT0iMTE0IiB4Mj0iNDY5IiB5MT0iNDU3LjUiIHkyPSI0NTcuNSIvPjxyZWN0IGZpbGw9Im5vbmUiIGhlaWdodD0iNiIgc3R5bGU9InN0cm9rZTojQzgyOTMwO3N0cm9rZS13aWR0aDoxLjA7IiB3aWR0aD0iNiIgeD0iMTIxIiB5PSI0NjcuNDkyMiIvPjx0ZXh0IGZpbGw9IiMwMDAwMDAiIGZvbnQtZmFtaWx5PSJzYW5zLXNlcmlmIiBmb250LXNpemU9IjE0IiBsZW5ndGhBZGp1c3Q9InNwYWNpbmciIHRleHRMZW5ndGg9IjIxMCIgeD0iMTMzIiB5PSI0NzQuNzM0NCI+ZmFjZUNhc2NhZGU6IENhc2NhZGVDbGFzc2lmaWVyPC90ZXh0PjxsaW5lIHN0eWxlPSJzdHJva2U6IzE4MTgxODtzdHJva2Utd2lkdGg6MC41OyIgeDE9IjExNCIgeDI9IjQ2OSIgeTE9IjQ4MC40ODQ0IiB5Mj0iNDgwLjQ4NDQiLz48ZWxsaXBzZSBjeD0iMTI0IiBjeT0iNDkzLjQ3NjYiIGZpbGw9IiM4NEJFODQiIHJ4PSIzIiByeT0iMyIgc3R5bGU9InN0cm9rZTojMDM4MDQ4O3N0cm9rZS13aWR0aDoxLjA7Ii8+PHRleHQgZmlsbD0iIzAwMDAwMCIgZm9udC1mYW1pbHk9InNhbnMtc2VyaWYiIGZvbnQtc2l6ZT0iMTQiIGxlbmd0aEFkanVzdD0ic3BhY2luZyIgdGV4dExlbmd0aD0iMzMxIiB4PSIxMzMiIHk9IjQ5Ny43MTg4Ij5GYWNlUmVjb2duaXRpb25TZXJ2aWNlKGNhc2NhZGVGaWxlUGF0aDogU3RyaW5nKTwvdGV4dD48ZWxsaXBzZSBjeD0iMTI0IiBjeT0iNTA4LjQ2MDkiIGZpbGw9IiM4NEJFODQiIHJ4PSIzIiByeT0iMyIgc3R5bGU9InN0cm9rZTojMDM4MDQ4O3N0cm9rZS13aWR0aDoxLjA7Ii8+PHRleHQgZmlsbD0iIzAwMDAwMCIgZm9udC1mYW1pbHk9InNhbnMtc2VyaWYiIGZvbnQtc2l6ZT0iMTQiIGxlbmd0aEFkanVzdD0ic3BhY2luZyIgdGV4dExlbmd0aD0iMzExIiB4PSIxMzMiIHk9IjUxMi43MDMxIj5kZXRlY3RGYWNlcyhpbWFnZTogTWF0KTogRmFjZURldGVjdGlvblJlc3VsdDwvdGV4dD48L2c+PCEtLWNsYXNzIEltYWdlTG9hZGVyLS0+PGcgaWQ9ImVsZW1fSW1hZ2VMb2FkZXIiPjxyZWN0IGNvZGVMaW5lPSIyMyIgZmlsbD0iI0YxRjFGMSIgaGVpZ2h0PSI2Mi45ODQ0IiBpZD0iSW1hZ2VMb2FkZXIiIHJ4PSIyLjUiIHJ5PSIyLjUiIHN0eWxlPSJzdHJva2U6IzE4MTgxODtzdHJva2Utd2lkdGg6MC41OyIgd2lkdGg9IjI2MSIgeD0iNzg1IiB5PSI0NDAuNSIvPjxlbGxpcHNlIGN4PSI4NzIuMjUiIGN5PSI0NTYuNSIgZmlsbD0iI0FERDFCMiIgcng9IjExIiByeT0iMTEiIHN0eWxlPSJzdHJva2U6IzE4MTgxODtzdHJva2Utd2lkdGg6MS4wOyIvPjxwYXRoIGQ9Ik04NjkuODc1LDQ2MC43NSBMODY5Ljg3NSw0NjIuNSBMODc0LjgxMjUsNDYyLjUgTDg3NC44MTI1LDQ2MC43NSBMODY5Ljg3NSw0NjAuNzUgWiBNODcwLjU2MjUsNDYxLjQzNzUgUTg3MC41NjI1LDQ2MS40Mzc1IDg3MC41NjI1LDQ1Mi4yNSBMODY4LjgxMjUsNDUyLjI1IFE4NjguODEyNSw0NTIuMjUgODY4LjgxMjUsNDYxLjQzNzUgTDg3MC41NjI1LDQ2MS40Mzc1IFogTTg3NC4xMjUsNDYxLjQzNzUgTDg3NS44NzUsNDYxLjQzNzUgUTg3NS44NzUsNDYxLjQzNzUgODc1Ljg3NSw0NTguNjI1IEw4NzQuMTI1LDQ1OC42MjUgUTg3NC4xMjUsNDU4LjYyNSA4NzQuMTI1LDQ2MS40Mzc1IFogTTg3NC4xMjUsNDUyLjI1IFE4NzQuMTI1LDQ1Mi4yNSA4NzQuMTI1LDQ1NS4wNjI1IEw4NzUuODc1LDQ1NS4wNjI1IFE4NzUuODc1LDQ1NS4wNjI1IDg3NS44NzUsNDUyLjI1IEw4NzQuMTI1LDQ1Mi4yNSBaIE04NjkuODc1LDQ1Mi45Mzc1IEw4NzQuODEyNSw0NTIuOTM3NSBMODc0LjgxMjUsNDUxLjE4NzUgTDg2OS44NzUsNDUxLjE4NzUgTDg2OS44NzUsNDUyLjkzNzUgWiAiIGZpbGw9IiMwMDAwMDAiLz48dGV4dCBmaWxsPSIjMDAwMDAwIiBmb250LWZhbWlseT0ic2Fucy1zZXJpZiIgZm9udC1zaXplPSIxNCIgbGVuZ3RoQWRqdXN0PSJzcGFjaW5nIiB0ZXh0TGVuZ3RoPSI3OCIgeD0iODkyLjc1IiB5PSI0NjIuMjQyMiI+SW1hZ2VMb2FkZXI8L3RleHQ+PGxpbmUgc3R5bGU9InN0cm9rZTojMTgxODE4O3N0cm9rZS13aWR0aDowLjU7IiB4MT0iNzg2IiB4Mj0iMTA0NSIgeTE9IjQ3Mi41IiB5Mj0iNDcyLjUiLz48bGluZSBzdHlsZT0ic3Ryb2tlOiMxODE4MTg7c3Ryb2tlLXdpZHRoOjAuNTsiIHgxPSI3ODYiIHgyPSIxMDQ1IiB5MT0iNDgwLjUiIHkyPSI0ODAuNSIvPjxlbGxpcHNlIGN4PSI3OTYiIGN5PSI0OTMuNDkyMiIgZmlsbD0iIzg0QkU4NCIgcng9IjMiIHJ5PSIzIiBzdHlsZT0ic3Ryb2tlOiMwMzgwNDg7c3Ryb2tlLXdpZHRoOjEuMDsiLz48dGV4dCBmaWxsPSIjMDAwMDAwIiBmb250LWZhbWlseT0ic2Fucy1zZXJpZiIgZm9udC1zaXplPSIxNCIgbGVuZ3RoQWRqdXN0PSJzcGFjaW5nIiB0ZXh0TGVuZ3RoPSIyMzUiIHg9IjgwNSIgeT0iNDk3LjczNDQiPmxvYWRJbWFnZShpbWFnZVBhdGg6IFN0cmluZyk6IE1hdDwvdGV4dD48L2c+PCEtLWNsYXNzIEZhY2VEZXRlY3Rpb25SZXN1bHQtLT48ZyBpZD0iZWxlbV9GYWNlRGV0ZWN0aW9uUmVzdWx0Ij48cmVjdCBjb2RlTGluZT0iMjciIGZpbGw9IiNGMUYxRjEiIGhlaWdodD0iMTIyLjkyMTkiIGlkPSJGYWNlRGV0ZWN0aW9uUmVzdWx0IiByeD0iMi41IiByeT0iMi41IiBzdHlsZT0ic3Ryb2tlOiMxODE4MTg7c3Ryb2tlLXdpZHRoOjAuNTsiIHdpZHRoPSIyOTQiIHg9IjI1LjUiIHk9IjczOSIvPjxlbGxpcHNlIGN4PSIxMDEuNzUiIGN5PSI3NTUiIGZpbGw9IiNBREQxQjIiIHJ4PSIxMSIgcnk9IjExIiBzdHlsZT0ic3Ryb2tlOiMxODE4MTg7c3Ryb2tlLXdpZHRoOjEuMDsiLz48cGF0aCBkPSJNOTkuMzc1LDc1OS4yNSBMOTkuMzc1LDc2MSBMMTA0LjMxMjUsNzYxIEwxMDQuMzEyNSw3NTkuMjUgTDk5LjM3NSw3NTkuMjUgWiBNMTAwLjA2MjUsNzU5LjkzNzUgUTEwMC4wNjI1LDc1OS45Mzc1IDEwMC4wNjI1LDc1MC43NSBMOTguMzEyNSw3NTAuNzUgUTk4LjMxMjUsNzUwLjc1IDk4LjMxMjUsNzU5LjkzNzUgTDEwMC4wNjI1LDc1OS45Mzc1IFogTTEwMy42MjUsNzU5LjkzNzUgTDEwNS4zNzUsNzU5LjkzNzUgUTEwNS4zNzUsNzU5LjkzNzUgMTA1LjM3NSw3NTcuMTI1IEwxMDMuNjI1LDc1Ny4xMjUgUTEwMy42MjUsNzU3LjEyNSAxMDMuNjI1LDc1OS45Mzc1IFogTTEwMy42MjUsNzUwLjc1IFExMDMuNjI1LDc1MC43NSAxMDMuNjI1LDc1My41NjI1IEwxMDUuMzc1LDc1My41NjI1IFExMDUuMzc1LDc1My41NjI1IDEwNS4zNzUsNzUwLjc1IEwxMDMuNjI1LDc1MC43NSBaIE05OS4zNzUsNzUxLjQzNzUgTDEwNC4zMTI1LDc1MS40Mzc1IEwxMDQuMzEyNSw3NDkuNjg3NSBMOTkuMzc1LDc0OS42ODc1IEw5OS4zNzUsNzUxLjQzNzUgWiAiIGZpbGw9IiMwMDAwMDAiLz48dGV4dCBmaWxsPSIjMDAwMDAwIiBmb250LWZhbWlseT0ic2Fucy1zZXJpZiIgZm9udC1zaXplPSIxNCIgbGVuZ3RoQWRqdXN0PSJzcGFjaW5nIiB0ZXh0TGVuZ3RoPSIxMzMiIHg9IjEyMi4yNSIgeT0iNzYwLjc0MjIiPkZhY2VEZXRlY3Rpb25SZXN1bHQ8L3RleHQ+PGxpbmUgc3R5bGU9InN0cm9rZTojMTgxODE4O3N0cm9rZS13aWR0aDowLjU7IiB4MT0iMjYuNSIgeDI9IjMxOC41IiB5MT0iNzcxIiB5Mj0iNzcxIi8+PHJlY3QgZmlsbD0ibm9uZSIgaGVpZ2h0PSI2IiBzdHlsZT0ic3Ryb2tlOiNDODI5MzA7c3Ryb2tlLXdpZHRoOjEuMDsiIHdpZHRoPSI2IiB4PSIzMy41IiB5PSI3ODAuOTkyMiIvPjx0ZXh0IGZpbGw9IiMwMDAwMDAiIGZvbnQtZmFtaWx5PSJzYW5zLXNlcmlmIiBmb250LXNpemU9IjE0IiBsZW5ndGhBZGp1c3Q9InNwYWNpbmciIHRleHRMZW5ndGg9IjExOSIgeD0iNDUuNSIgeT0iNzg4LjIzNDQiPmZhY2VzOiBMaXN0Jmx0O1JlY3QmZ3Q7PC90ZXh0PjxsaW5lIHN0eWxlPSJzdHJva2U6IzE4MTgxODtzdHJva2Utd2lkdGg6MC41OyIgeDE9IjI2LjUiIHgyPSIzMTguNSIgeTE9Ijc5My45ODQ0IiB5Mj0iNzkzLjk4NDQiLz48ZWxsaXBzZSBjeD0iMzYuNSIgY3k9IjgwNi45NzY2IiBmaWxsPSIjODRCRTg0IiByeD0iMyIgcnk9IjMiIHN0eWxlPSJzdHJva2U6IzAzODA0ODtzdHJva2Utd2lkdGg6MS4wOyIvPjx0ZXh0IGZpbGw9IiMwMDAwMDAiIGZvbnQtZmFtaWx5PSJzYW5zLXNlcmlmIiBmb250LXNpemU9IjE0IiBsZW5ndGhBZGp1c3Q9InNwYWNpbmciIHRleHRMZW5ndGg9IjI2OCIgeD0iNDUuNSIgeT0iODExLjIxODgiPkZhY2VEZXRlY3Rpb25SZXN1bHQoZmFjZXM6IExpc3QmbHQ7UmVjdCZndDspPC90ZXh0PjxlbGxpcHNlIGN4PSIzNi41IiBjeT0iODIxLjk2MDkiIGZpbGw9IiM4NEJFODQiIHJ4PSIzIiByeT0iMyIgc3R5bGU9InN0cm9rZTojMDM4MDQ4O3N0cm9rZS13aWR0aDoxLjA7Ii8+PHRleHQgZmlsbD0iIzAwMDAwMCIgZm9udC1mYW1pbHk9InNhbnMtc2VyaWYiIGZvbnQtc2l6ZT0iMTQiIGxlbmd0aEFkanVzdD0ic3BhY2luZyIgdGV4dExlbmd0aD0iMTU2IiB4PSI0NS41IiB5PSI4MjYuMjAzMSI+Z2V0RmFjZXMoKTogTGlzdCZsdDtSZWN0Jmd0OzwvdGV4dD48ZWxsaXBzZSBjeD0iMzYuNSIgY3k9IjgzNi45NDUzIiBmaWxsPSIjODRCRTg0IiByeD0iMyIgcnk9IjMiIHN0eWxlPSJzdHJva2U6IzAzODA0ODtzdHJva2Utd2lkdGg6MS4wOyIvPjx0ZXh0IGZpbGw9IiMwMDAwMDAiIGZvbnQtZmFtaWx5PSJzYW5zLXNlcmlmIiBmb250LXNpemU9IjE0IiBsZW5ndGhBZGp1c3Q9InNwYWNpbmciIHRleHRMZW5ndGg9IjEzNSIgeD0iNDUuNSIgeT0iODQxLjE4NzUiPmdldEZhY2VDb3VudCgpOiBpbnQ8L3RleHQ+PGVsbGlwc2UgY3g9IjM2LjUiIGN5PSI4NTEuOTI5NyIgZmlsbD0iIzg0QkU4NCIgcng9IjMiIHJ5PSIzIiBzdHlsZT0ic3Ryb2tlOiMwMzgwNDg7c3Ryb2tlLXdpZHRoOjEuMDsiLz48dGV4dCBmaWxsPSIjMDAwMDAwIiBmb250LWZhbWlseT0ic2Fucy1zZXJpZiIgZm9udC1zaXplPSIxNCIgbGVuZ3RoQWRqdXN0PSJzcGFjaW5nIiB0ZXh0TGVuZ3RoPSIxOTMiIHg9IjQ1LjUiIHk9Ijg1Ni4xNzE5Ij5kcmF3RmFjZXMoaW1hZ2U6IE1hdCk6IHZvaWQ8L3RleHQ+PC9nPjwhLS1jbGFzcyBSZWN0LS0+PGcgaWQ9ImVsZW1fUmVjdCI+PHJlY3QgY29kZUxpbmU9IjM1IiBmaWxsPSIjRjFGMUYxIiBoZWlnaHQ9IjI0Mi43OTY5IiBpZD0iUmVjdCIgcng9IjIuNSIgcnk9IjIuNSIgc3R5bGU9InN0cm9rZTojMTgxODE4O3N0cm9rZS13aWR0aDowLjU7IiB3aWR0aD0iMzQ0IiB4PSI0MS41IiB5PSIxMTY1Ii8+PGVsbGlwc2UgY3g9IjE5NS4yNSIgY3k9IjExODEiIGZpbGw9IiNBREQxQjIiIHJ4PSIxMSIgcnk9IjExIiBzdHlsZT0ic3Ryb2tlOiMxODE4MTg7c3Ryb2tlLXdpZHRoOjEuMDsiLz48cGF0aCBkPSJNMTkyLjg3NSwxMTg1LjI1IEwxOTIuODc1LDExODcgTDE5Ny44MTI1LDExODcgTDE5Ny44MTI1LDExODUuMjUgTDE5Mi44NzUsMTE4NS4yNSBaIE0xOTMuNTYyNSwxMTg1LjkzNzUgUTE5My41NjI1LDExODUuOTM3NSAxOTMuNTYyNSwxMTc2Ljc1IEwxOTEuODEyNSwxMTc2Ljc1IFExOTEuODEyNSwxMTc2Ljc1IDE5MS44MTI1LDExODUuOTM3NSBMMTkzLjU2MjUsMTE4NS45Mzc1IFogTTE5Ny4xMjUsMTE4NS45Mzc1IEwxOTguODc1LDExODUuOTM3NSBRMTk4Ljg3NSwxMTg1LjkzNzUgMTk4Ljg3NSwxMTgzLjEyNSBMMTk3LjEyNSwxMTgzLjEyNSBRMTk3LjEyNSwxMTgzLjEyNSAxOTcuMTI1LDExODUuOTM3NSBaIE0xOTcuMTI1LDExNzYuNzUgUTE5Ny4xMjUsMTE3Ni43NSAxOTcuMTI1LDExNzkuNTYyNSBMMTk4Ljg3NSwxMTc5LjU2MjUgUTE5OC44NzUsMTE3OS41NjI1IDE5OC44NzUsMTE3Ni43NSBMMTk3LjEyNSwxMTc2Ljc1IFogTTE5Mi44NzUsMTE3Ny40Mzc1IEwxOTcuODEyNSwxMTc3LjQzNzUgTDE5Ny44MTI1LDExNzUuNjg3NSBMMTkyLjg3NSwxMTc1LjY4NzUgTDE5Mi44NzUsMTE3Ny40Mzc1IFogIiBmaWxsPSIjMDAwMDAwIi8+PHRleHQgZmlsbD0iIzAwMDAwMCIgZm9udC1mYW1pbHk9InNhbnMtc2VyaWYiIGZvbnQtc2l6ZT0iMTQiIGxlbmd0aEFkanVzdD0ic3BhY2luZyIgdGV4dExlbmd0aD0iMjgiIHg9IjIxNS43NSIgeT0iMTE4Ni43NDIyIj5SZWN0PC90ZXh0PjxsaW5lIHN0eWxlPSJzdHJva2U6IzE4MTgxODtzdHJva2Utd2lkdGg6MC41OyIgeDE9IjQyLjUiIHgyPSIzODQuNSIgeTE9IjExOTciIHkyPSIxMTk3Ii8+PHJlY3QgZmlsbD0ibm9uZSIgaGVpZ2h0PSI2IiBzdHlsZT0ic3Ryb2tlOiNDODI5MzA7c3Ryb2tlLXdpZHRoOjEuMDsiIHdpZHRoPSI2IiB4PSI0OS41IiB5PSIxMjA2Ljk5MjIiLz48dGV4dCBmaWxsPSIjMDAwMDAwIiBmb250LWZhbWlseT0ic2Fucy1zZXJpZiIgZm9udC1zaXplPSIxNCIgbGVuZ3RoQWRqdXN0PSJzcGFjaW5nIiB0ZXh0TGVuZ3RoPSI0MiIgeD0iNjEuNSIgeT0iMTIxNC4yMzQ0Ij54OiBpbnQ8L3RleHQ+PHJlY3QgZmlsbD0ibm9uZSIgaGVpZ2h0PSI2IiBzdHlsZT0ic3Ryb2tlOiNDODI5MzA7c3Ryb2tlLXdpZHRoOjEuMDsiIHdpZHRoPSI2IiB4PSI0OS41IiB5PSIxMjIxLjk3NjYiLz48dGV4dCBmaWxsPSIjMDAwMDAwIiBmb250LWZhbWlseT0ic2Fucy1zZXJpZiIgZm9udC1zaXplPSIxNCIgbGVuZ3RoQWRqdXN0PSJzcGFjaW5nIiB0ZXh0TGVuZ3RoPSI0MiIgeD0iNjEuNSIgeT0iMTIyOS4yMTg4Ij55OiBpbnQ8L3RleHQ+PHJlY3QgZmlsbD0ibm9uZSIgaGVpZ2h0PSI2IiBzdHlsZT0ic3Ryb2tlOiNDODI5MzA7c3Ryb2tlLXdpZHRoOjEuMDsiIHdpZHRoPSI2IiB4PSI0OS41IiB5PSIxMjM2Ljk2MDkiLz48dGV4dCBmaWxsPSIjMDAwMDAwIiBmb250LWZhbWlseT0ic2Fucy1zZXJpZiIgZm9udC1zaXplPSIxNCIgbGVuZ3RoQWRqdXN0PSJzcGFjaW5nIiB0ZXh0TGVuZ3RoPSI3MSIgeD0iNjEuNSIgeT0iMTI0NC4yMDMxIj53aWR0aDogaW50PC90ZXh0PjxyZWN0IGZpbGw9Im5vbmUiIGhlaWdodD0iNiIgc3R5bGU9InN0cm9rZTojQzgyOTMwO3N0cm9rZS13aWR0aDoxLjA7IiB3aWR0aD0iNiIgeD0iNDkuNSIgeT0iMTI1MS45NDUzIi8+PHRleHQgZmlsbD0iIzAwMDAwMCIgZm9udC1mYW1pbHk9InNhbnMtc2VyaWYiIGZvbnQtc2l6ZT0iMTQiIGxlbmd0aEFkanVzdD0ic3BhY2luZyIgdGV4dExlbmd0aD0iNzciIHg9IjYxLjUiIHk9IjEyNTkuMTg3NSI+aGVpZ2h0OiBpbnQ8L3RleHQ+PGxpbmUgc3R5bGU9InN0cm9rZTojMTgxODE4O3N0cm9rZS13aWR0aDowLjU7IiB4MT0iNDIuNSIgeDI9IjM4NC41IiB5MT0iMTI2NC45Mzc1IiB5Mj0iMTI2NC45Mzc1Ii8+PGVsbGlwc2UgY3g9IjUyLjUiIGN5PSIxMjc3LjkyOTciIGZpbGw9IiM4NEJFODQiIHJ4PSIzIiByeT0iMyIgc3R5bGU9InN0cm9rZTojMDM4MDQ4O3N0cm9rZS13aWR0aDoxLjA7Ii8+PHRleHQgZmlsbD0iIzAwMDAwMCIgZm9udC1mYW1pbHk9InNhbnMtc2VyaWYiIGZvbnQtc2l6ZT0iMTQiIGxlbmd0aEFkanVzdD0ic3BhY2luZyIgdGV4dExlbmd0aD0iNDQiIHg9IjYxLjUiIHk9IjEyODIuMTcxOSI+UmVjdCgpPC90ZXh0PjxlbGxpcHNlIGN4PSI1Mi41IiBjeT0iMTI5Mi45MTQxIiBmaWxsPSIjODRCRTg0IiByeD0iMyIgcnk9IjMiIHN0eWxlPSJzdHJva2U6IzAzODA0ODtzdHJva2Utd2lkdGg6MS4wOyIvPjx0ZXh0IGZpbGw9IiMwMDAwMDAiIGZvbnQtZmFtaWx5PSJzYW5zLXNlcmlmIiBmb250LXNpemU9IjE0IiBsZW5ndGhBZGp1c3Q9InNwYWNpbmciIHRleHRMZW5ndGg9IjMxOCIgeD0iNjEuNSIgeT0iMTI5Ny4xNTYzIj5SZWN0KHg6IGludCwgeTogaW50LCB3aWR0aDogaW50LCBoZWlnaHQ6IGludCk8L3RleHQ+PGVsbGlwc2UgY3g9IjUyLjUiIGN5PSIxMzA3Ljg5ODQiIGZpbGw9IiM4NEJFODQiIHJ4PSIzIiByeT0iMyIgc3R5bGU9InN0cm9rZTojMDM4MDQ4O3N0cm9rZS13aWR0aDoxLjA7Ii8+PHRleHQgZmlsbD0iIzAwMDAwMCIgZm9udC1mYW1pbHk9InNhbnMtc2VyaWYiIGZvbnQtc2l6ZT0iMTQiIGxlbmd0aEFkanVzdD0ic3BhY2luZyIgdGV4dExlbmd0aD0iNzkiIHg9IjYxLjUiIHk9IjEzMTIuMTQwNiI+YXJlYSgpOiBpbnQ8L3RleHQ+PGVsbGlwc2UgY3g9IjUyLjUiIGN5PSIxMzIyLjg4MjgiIGZpbGw9IiM4NEJFODQiIHJ4PSIzIiByeT0iMyIgc3R5bGU9InN0cm9rZTojMDM4MDQ4O3N0cm9rZS13aWR0aDoxLjA7Ii8+PHRleHQgZmlsbD0iIzAwMDAwMCIgZm9udC1mYW1pbHk9InNhbnMtc2VyaWYiIGZvbnQtc2l6ZT0iMTQiIGxlbmd0aEFkanVzdD0ic3BhY2luZyIgdGV4dExlbmd0aD0iOTMiIHg9IjYxLjUiIHk9IjEzMjcuMTI1Ij5jbG9uZSgpOiBSZWN0PC90ZXh0PjxlbGxpcHNlIGN4PSI1Mi41IiBjeT0iMTMzNy44NjcyIiBmaWxsPSIjODRCRTg0IiByeD0iMyIgcnk9IjMiIHN0eWxlPSJzdHJva2U6IzAzODA0ODtzdHJva2Utd2lkdGg6MS4wOyIvPjx0ZXh0IGZpbGw9IiMwMDAwMDAiIGZvbnQtZmFtaWx5PSJzYW5zLXNlcmlmIiBmb250LXNpemU9IjE0IiBsZW5ndGhBZGp1c3Q9InNwYWNpbmciIHRleHRMZW5ndGg9IjE3MCIgeD0iNjEuNSIgeT0iMTM0Mi4xMDk0Ij5jb250YWlucyhwOiBQb2ludCk6IGJvb2w8L3RleHQ+PGVsbGlwc2UgY3g9IjUyLjUiIGN5PSIxMzUyLjg1MTYiIGZpbGw9IiM4NEJFODQiIHJ4PSIzIiByeT0iMyIgc3R5bGU9InN0cm9rZTojMDM4MDQ4O3N0cm9rZS13aWR0aDoxLjA7Ii8+PHRleHQgZmlsbD0iIzAwMDAwMCIgZm9udC1mYW1pbHk9InNhbnMtc2VyaWYiIGZvbnQtc2l6ZT0iMTQiIGxlbmd0aEFkanVzdD0ic3BhY2luZyIgdGV4dExlbmd0aD0iOTQiIHg9IjYxLjUiIHk9IjEzNTcuMDkzOCI+ZW1wdHkoKTogYm9vbDwvdGV4dD48ZWxsaXBzZSBjeD0iNTIuNSIgY3k9IjEzNjcuODM1OSIgZmlsbD0iIzg0QkU4NCIgcng9IjMiIHJ5PSIzIiBzdHlsZT0ic3Ryb2tlOiMwMzgwNDg7c3Ryb2tlLXdpZHRoOjEuMDsiLz48dGV4dCBmaWxsPSIjMDAwMDAwIiBmb250LWZhbWlseT0ic2Fucy1zZXJpZiIgZm9udC1zaXplPSIxNCIgbGVuZ3RoQWRqdXN0PSJzcGFjaW5nIiB0ZXh0TGVuZ3RoPSI4NiIgeD0iNjEuNSIgeT0iMTM3Mi4wNzgxIj5zaXplKCk6IFNpemU8L3RleHQ+PGVsbGlwc2UgY3g9IjUyLjUiIGN5PSIxMzgyLjgyMDMiIGZpbGw9IiM4NEJFODQiIHJ4PSIzIiByeT0iMyIgc3R5bGU9InN0cm9rZTojMDM4MDQ4O3N0cm9rZS13aWR0aDoxLjA7Ii8+PHRleHQgZmlsbD0iIzAwMDAwMCIgZm9udC1mYW1pbHk9InNhbnMtc2VyaWYiIGZvbnQtc2l6ZT0iMTQiIGxlbmd0aEFkanVzdD0ic3BhY2luZyIgdGV4dExlbmd0aD0iNzkiIHg9IjYxLjUiIHk9IjEzODcuMDYyNSI+dGwoKTogUG9pbnQ8L3RleHQ+PGVsbGlwc2UgY3g9IjUyLjUiIGN5PSIxMzk3LjgwNDciIGZpbGw9IiM4NEJFODQiIHJ4PSIzIiByeT0iMyIgc3R5bGU9InN0cm9rZTojMDM4MDQ4O3N0cm9rZS13aWR0aDoxLjA7Ii8+PHRleHQgZmlsbD0iIzAwMDAwMCIgZm9udC1mYW1pbHk9InNhbnMtc2VyaWYiIGZvbnQtc2l6ZT0iMTQiIGxlbmd0aEFkanVzdD0ic3BhY2luZyIgdGV4dExlbmd0aD0iNzkiIHg9IjYxLjUiIHk9IjE0MDIuMDQ2OSI+YnIoKTogUG9pbnQ8L3RleHQ+PC9nPjwhLS1jbGFzcyBQb2ludC0tPjxnIGlkPSJlbGVtX1BvaW50Ij48cmVjdCBjb2RlTGluZT0iNTEiIGZpbGw9IiNGMUYxRjEiIGhlaWdodD0iMTA3LjkzNzUiIGlkPSJQb2ludCIgcng9IjIuNSIgcnk9IjIuNSIgc3R5bGU9InN0cm9rZTojMTgxODE4O3N0cm9rZS13aWR0aDowLjU7IiB3aWR0aD0iMTc1IiB4PSI3IiB5PSIxNDgzIi8+PGVsbGlwc2UgY3g9IjcyLjc1IiBjeT0iMTQ5OSIgZmlsbD0iI0FERDFCMiIgcng9IjExIiByeT0iMTEiIHN0eWxlPSJzdHJva2U6IzE4MTgxODtzdHJva2Utd2lkdGg6MS4wOyIvPjxwYXRoIGQ9Ik03MC4zNzUsMTUwMy4yNSBMNzAuMzc1LDE1MDUgTDc1LjMxMjUsMTUwNSBMNzUuMzEyNSwxNTAzLjI1IEw3MC4zNzUsMTUwMy4yNSBaIE03MS4wNjI1LDE1MDMuOTM3NSBRNzEuMDYyNSwxNTAzLjkzNzUgNzEuMDYyNSwxNDk0Ljc1IEw2OS4zMTI1LDE0OTQuNzUgUTY5LjMxMjUsMTQ5NC43NSA2OS4zMTI1LDE1MDMuOTM3NSBMNzEuMDYyNSwxNTAzLjkzNzUgWiBNNzQuNjI1LDE1MDMuOTM3NSBMNzYuMzc1LDE1MDMuOTM3NSBRNzYuMzc1LDE1MDMuOTM3NSA3Ni4zNzUsMTUwMS4xMjUgTDc0LjYyNSwxNTAxLjEyNSBRNzQuNjI1LDE1MDEuMTI1IDc0LjYyNSwxNTAzLjkzNzUgWiBNNzQuNjI1LDE0OTQuNzUgUTc0LjYyNSwxNDk0Ljc1IDc0LjYyNSwxNDk3LjU2MjUgTDc2LjM3NSwxNDk3LjU2MjUgUTc2LjM3NSwxNDk3LjU2MjUgNzYuMzc1LDE0OTQuNzUgTDc0LjYyNSwxNDk0Ljc1IFogTTcwLjM3NSwxNDk1LjQzNzUgTDc1LjMxMjUsMTQ5NS40Mzc1IEw3NS4zMTI1LDE0OTMuNjg3NSBMNzAuMzc1LDE0OTMuNjg3NSBMNzAuMzc1LDE0OTUuNDM3NSBaICIgZmlsbD0iIzAwMDAwMCIvPjx0ZXh0IGZpbGw9IiMwMDAwMDAiIGZvbnQtZmFtaWx5PSJzYW5zLXNlcmlmIiBmb250LXNpemU9IjE0IiBsZW5ndGhBZGp1c3Q9InNwYWNpbmciIHRleHRMZW5ndGg9IjM1IiB4PSI5My4yNSIgeT0iMTUwNC43NDIyIj5Qb2ludDwvdGV4dD48bGluZSBzdHlsZT0ic3Ryb2tlOiMxODE4MTg7c3Ryb2tlLXdpZHRoOjAuNTsiIHgxPSI4IiB4Mj0iMTgxIiB5MT0iMTUxNSIgeTI9IjE1MTUiLz48cmVjdCBmaWxsPSJub25lIiBoZWlnaHQ9IjYiIHN0eWxlPSJzdHJva2U6I0M4MjkzMDtzdHJva2Utd2lkdGg6MS4wOyIgd2lkdGg9IjYiIHg9IjE1IiB5PSIxNTI0Ljk5MjIiLz48dGV4dCBmaWxsPSIjMDAwMDAwIiBmb250LWZhbWlseT0ic2Fucy1zZXJpZiIgZm9udC1zaXplPSIxNCIgbGVuZ3RoQWRqdXN0PSJzcGFjaW5nIiB0ZXh0TGVuZ3RoPSI0MiIgeD0iMjciIHk9IjE1MzIuMjM0NCI+eDogaW50PC90ZXh0PjxyZWN0IGZpbGw9Im5vbmUiIGhlaWdodD0iNiIgc3R5bGU9InN0cm9rZTojQzgyOTMwO3N0cm9rZS13aWR0aDoxLjA7IiB3aWR0aD0iNiIgeD0iMTUiIHk9IjE1MzkuOTc2NiIvPjx0ZXh0IGZpbGw9IiMwMDAwMDAiIGZvbnQtZmFtaWx5PSJzYW5zLXNlcmlmIiBmb250LXNpemU9IjE0IiBsZW5ndGhBZGp1c3Q9InNwYWNpbmciIHRleHRMZW5ndGg9IjQyIiB4PSIyNyIgeT0iMTU0Ny4yMTg4Ij55OiBpbnQ8L3RleHQ+PGxpbmUgc3R5bGU9InN0cm9rZTojMTgxODE4O3N0cm9rZS13aWR0aDowLjU7IiB4MT0iOCIgeDI9IjE4MSIgeTE9IjE1NTIuOTY4OCIgeTI9IjE1NTIuOTY4OCIvPjxlbGxpcHNlIGN4PSIxOCIgY3k9IjE1NjUuOTYwOSIgZmlsbD0iIzg0QkU4NCIgcng9IjMiIHJ5PSIzIiBzdHlsZT0ic3Ryb2tlOiMwMzgwNDg7c3Ryb2tlLXdpZHRoOjEuMDsiLz48dGV4dCBmaWxsPSIjMDAwMDAwIiBmb250LWZhbWlseT0ic2Fucy1zZXJpZiIgZm9udC1zaXplPSIxNCIgbGVuZ3RoQWRqdXN0PSJzcGFjaW5nIiB0ZXh0TGVuZ3RoPSI1MSIgeD0iMjciIHk9IjE1NzAuMjAzMSI+UG9pbnQoKTwvdGV4dD48ZWxsaXBzZSBjeD0iMTgiIGN5PSIxNTgwLjk0NTMiIGZpbGw9IiM4NEJFODQiIHJ4PSIzIiByeT0iMyIgc3R5bGU9InN0cm9rZTojMDM4MDQ4O3N0cm9rZS13aWR0aDoxLjA7Ii8+PHRleHQgZmlsbD0iIzAwMDAwMCIgZm9udC1mYW1pbHk9InNhbnMtc2VyaWYiIGZvbnQtc2l6ZT0iMTQiIGxlbmd0aEFkanVzdD0ic3BhY2luZyIgdGV4dExlbmd0aD0iMTQ5IiB4PSIyNyIgeT0iMTU4NS4xODc1Ij5Qb2ludCh4OiBpbnQsIHk6IGludCk8L3RleHQ+PC9nPjwhLS1jbGFzcyBTaXplLS0+PGcgaWQ9ImVsZW1fU2l6ZSI+PHJlY3QgY29kZUxpbmU9IjU4IiBmaWxsPSIjRjFGMUYxIiBoZWlnaHQ9IjEwNy45Mzc1IiBpZD0iU2l6ZSIgcng9IjIuNSIgcnk9IjIuNSIgc3R5bGU9InN0cm9rZTojMTgxODE4O3N0cm9rZS13aWR0aDowLjU7IiB3aWR0aD0iMjMyIiB4PSIyMTcuNSIgeT0iMTQ4MyIvPjxlbGxpcHNlIGN4PSIzMTUuMjUiIGN5PSIxNDk5IiBmaWxsPSIjQUREMUIyIiByeD0iMTEiIHJ5PSIxMSIgc3R5bGU9InN0cm9rZTojMTgxODE4O3N0cm9rZS13aWR0aDoxLjA7Ii8+PHBhdGggZD0iTTMxMi44NzUsMTUwMy4yNSBMMzEyLjg3NSwxNTA1IEwzMTcuODEyNSwxNTA1IEwzMTcuODEyNSwxNTAzLjI1IEwzMTIuODc1LDE1MDMuMjUgWiBNMzEzLjU2MjUsMTUwMy45Mzc1IFEzMTMuNTYyNSwxNTAzLjkzNzUgMzEzLjU2MjUsMTQ5NC43NSBMMzExLjgxMjUsMTQ5NC43NSBRMzExLjgxMjUsMTQ5NC43NSAzMTEuODEyNSwxNTAzLjkzNzUgTDMxMy41NjI1LDE1MDMuOTM3NSBaIE0zMTcuMTI1LDE1MDMuOTM3NSBMMzE4Ljg3NSwxNTAzLjkzNzUgUTMxOC44NzUsMTUwMy45Mzc1IDMxOC44NzUsMTUwMS4xMjUgTDMxNy4xMjUsMTUwMS4xMjUgUTMxNy4xMjUsMTUwMS4xMjUgMzE3LjEyNSwxNTAzLjkzNzUgWiBNMzE3LjEyNSwxNDk0Ljc1IFEzMTcuMTI1LDE0OTQuNzUgMzE3LjEyNSwxNDk3LjU2MjUgTDMxOC44NzUsMTQ5Ny41NjI1IFEzMTguODc1LDE0OTcuNTYyNSAzMTguODc1LDE0OTQuNzUgTDMxNy4xMjUsMTQ5NC43NSBaIE0zMTIuODc1LDE0OTUuNDM3NSBMMzE3LjgxMjUsMTQ5NS40Mzc1IEwzMTcuODEyNSwxNDkzLjY4NzUgTDMxMi44NzUsMTQ5My42ODc1IEwzMTIuODc1LDE0OTUuNDM3NSBaICIgZmlsbD0iIzAwMDAwMCIvPjx0ZXh0IGZpbGw9IiMwMDAwMDAiIGZvbnQtZmFtaWx5PSJzYW5zLXNlcmlmIiBmb250LXNpemU9IjE0IiBsZW5ndGhBZGp1c3Q9InNwYWNpbmciIHRleHRMZW5ndGg9IjI4IiB4PSIzMzUuNzUiIHk9IjE1MDQuNzQyMiI+U2l6ZTwvdGV4dD48bGluZSBzdHlsZT0ic3Ryb2tlOiMxODE4MTg7c3Ryb2tlLXdpZHRoOjAuNTsiIHgxPSIyMTguNSIgeDI9IjQ0OC41IiB5MT0iMTUxNSIgeTI9IjE1MTUiLz48cmVjdCBmaWxsPSJub25lIiBoZWlnaHQ9IjYiIHN0eWxlPSJzdHJva2U6I0M4MjkzMDtzdHJva2Utd2lkdGg6MS4wOyIgd2lkdGg9IjYiIHg9IjIyNS41IiB5PSIxNTI0Ljk5MjIiLz48dGV4dCBmaWxsPSIjMDAwMDAwIiBmb250LWZhbWlseT0ic2Fucy1zZXJpZiIgZm9udC1zaXplPSIxNCIgbGVuZ3RoQWRqdXN0PSJzcGFjaW5nIiB0ZXh0TGVuZ3RoPSI3MSIgeD0iMjM3LjUiIHk9IjE1MzIuMjM0NCI+d2lkdGg6IGludDwvdGV4dD48cmVjdCBmaWxsPSJub25lIiBoZWlnaHQ9IjYiIHN0eWxlPSJzdHJva2U6I0M4MjkzMDtzdHJva2Utd2lkdGg6MS4wOyIgd2lkdGg9IjYiIHg9IjIyNS41IiB5PSIxNTM5Ljk3NjYiLz48dGV4dCBmaWxsPSIjMDAwMDAwIiBmb250LWZhbWlseT0ic2Fucy1zZXJpZiIgZm9udC1zaXplPSIxNCIgbGVuZ3RoQWRqdXN0PSJzcGFjaW5nIiB0ZXh0TGVuZ3RoPSI3NyIgeD0iMjM3LjUiIHk9IjE1NDcuMjE4OCI+aGVpZ2h0OiBpbnQ8L3RleHQ+PGxpbmUgc3R5bGU9InN0cm9rZTojMTgxODE4O3N0cm9rZS13aWR0aDowLjU7IiB4MT0iMjE4LjUiIHgyPSI0NDguNSIgeTE9IjE1NTIuOTY4OCIgeTI9IjE1NTIuOTY4OCIvPjxlbGxpcHNlIGN4PSIyMjguNSIgY3k9IjE1NjUuOTYwOSIgZmlsbD0iIzg0QkU4NCIgcng9IjMiIHJ5PSIzIiBzdHlsZT0ic3Ryb2tlOiMwMzgwNDg7c3Ryb2tlLXdpZHRoOjEuMDsiLz48dGV4dCBmaWxsPSIjMDAwMDAwIiBmb250LWZhbWlseT0ic2Fucy1zZXJpZiIgZm9udC1zaXplPSIxNCIgbGVuZ3RoQWRqdXN0PSJzcGFjaW5nIiB0ZXh0TGVuZ3RoPSI0NCIgeD0iMjM3LjUiIHk9IjE1NzAuMjAzMSI+U2l6ZSgpPC90ZXh0PjxlbGxpcHNlIGN4PSIyMjguNSIgY3k9IjE1ODAuOTQ1MyIgZmlsbD0iIzg0QkU4NCIgcng9IjMiIHJ5PSIzIiBzdHlsZT0ic3Ryb2tlOiMwMzgwNDg7c3Ryb2tlLXdpZHRoOjEuMDsiLz48dGV4dCBmaWxsPSIjMDAwMDAwIiBmb250LWZhbWlseT0ic2Fucy1zZXJpZiIgZm9udC1zaXplPSIxNCIgbGVuZ3RoQWRqdXN0PSJzcGFjaW5nIiB0ZXh0TGVuZ3RoPSIyMDYiIHg9IjIzNy41IiB5PSIxNTg1LjE4NzUiPlNpemUod2lkdGg6IGludCwgaGVpZ2h0OiBpbnQpPC90ZXh0PjwvZz48IS0tY2xhc3MgTWF0LS0+PGcgaWQ9ImVsZW1fTWF0Ij48cmVjdCBjb2RlTGluZT0iNjUiIGZpbGw9IiNGMUYxRjEiIGhlaWdodD0iOTIuOTUzMSIgaWQ9Ik1hdCIgcng9IjIuNSIgcnk9IjIuNSIgc3R5bGU9InN0cm9rZTojMTgxODE4O3N0cm9rZS13aWR0aDowLjU7IiB3aWR0aD0iMjMwIiB4PSI3MjQuNSIgeT0iNjE2Ii8+PGVsbGlwc2UgY3g9IjgyNC43NSIgY3k9IjYzMiIgZmlsbD0iI0FERDFCMiIgcng9IjExIiByeT0iMTEiIHN0eWxlPSJzdHJva2U6IzE4MTgxODtzdHJva2Utd2lkdGg6MS4wOyIvPjxwYXRoIGQ9Ik04MjIuMzc1LDYzNi4yNSBMODIyLjM3NSw2MzggTDgyNy4zMTI1LDYzOCBMODI3LjMxMjUsNjM2LjI1IEw4MjIuMzc1LDYzNi4yNSBaIE04MjMuMDYyNSw2MzYuOTM3NSBRODIzLjA2MjUsNjM2LjkzNzUgODIzLjA2MjUsNjI3Ljc1IEw4MjEuMzEyNSw2MjcuNzUgUTgyMS4zMTI1LDYyNy43NSA4MjEuMzEyNSw2MzYuOTM3NSBMODIzLjA2MjUsNjM2LjkzNzUgWiBNODI2LjYyNSw2MzYuOTM3NSBMODI4LjM3NSw2MzYuOTM3NSBRODI4LjM3NSw2MzYuOTM3NSA4MjguMzc1LDYzNC4xMjUgTDgyNi42MjUsNjM0LjEyNSBRODI2LjYyNSw2MzQuMTI1IDgyNi42MjUsNjM2LjkzNzUgWiBNODI2LjYyNSw2MjcuNzUgUTgyNi42MjUsNjI3Ljc1IDgyNi42MjUsNjMwLjU2MjUgTDgyOC4zNzUsNjMwLjU2MjUgUTgyOC4zNzUsNjMwLjU2MjUgODI4LjM3NSw2MjcuNzUgTDgyNi42MjUsNjI3Ljc1IFogTTgyMi4zNzUsNjI4LjQzNzUgTDgyNy4zMTI1LDYyOC40Mzc1IEw4MjcuMzEyNSw2MjYuNjg3NSBMODIyLjM3NSw2MjYuNjg3NSBMODIyLjM3NSw2MjguNDM3NSBaICIgZmlsbD0iIzAwMDAwMCIvPjx0ZXh0IGZpbGw9IiMwMDAwMDAiIGZvbnQtZmFtaWx5PSJzYW5zLXNlcmlmIiBmb250LXNpemU9IjE0IiBsZW5ndGhBZGp1c3Q9InNwYWNpbmciIHRleHRMZW5ndGg9IjIxIiB4PSI4NDUuMjUiIHk9IjYzNy43NDIyIj5NYXQ8L3RleHQ+PGxpbmUgc3R5bGU9InN0cm9rZTojMTgxODE4O3N0cm9rZS13aWR0aDowLjU7IiB4MT0iNzI1LjUiIHgyPSI5NTMuNSIgeTE9IjY0OCIgeTI9IjY0OCIvPjx0ZXh0IGZpbGw9IiMwMDAwMDAiIGZvbnQtZmFtaWx5PSJzYW5zLXNlcmlmIiBmb250LXNpemU9IjE0IiBsZW5ndGhBZGp1c3Q9InNwYWNpbmciIHRleHRMZW5ndGg9IjIxOCIgeD0iNzMwLjUiIHk9IjY2NS4yMzQ0Ij4vLyAmIzI3MjsmIzc4ODk7aSB0JiM0MzI7JiM3OTA3O25nIG1hIHRyJiM3ODUzO24gYyYjNzkxMTthIE9wZW5DVjwvdGV4dD48bGluZSBzdHlsZT0ic3Ryb2tlOiMxODE4MTg7c3Ryb2tlLXdpZHRoOjAuNTsiIHgxPSI3MjUuNSIgeDI9Ijk1My41IiB5MT0iNjcwLjk4NDQiIHkyPSI2NzAuOTg0NCIvPjxlbGxpcHNlIGN4PSI3MzUuNSIgY3k9IjY4My45NzY2IiBmaWxsPSIjODRCRTg0IiByeD0iMyIgcnk9IjMiIHN0eWxlPSJzdHJva2U6IzAzODA0ODtzdHJva2Utd2lkdGg6MS4wOyIvPjx0ZXh0IGZpbGw9IiMwMDAwMDAiIGZvbnQtZmFtaWx5PSJzYW5zLXNlcmlmIiBmb250LXNpemU9IjE0IiBsZW5ndGhBZGp1c3Q9InNwYWNpbmciIHRleHRMZW5ndGg9IjM3IiB4PSI3NDQuNSIgeT0iNjg4LjIxODgiPk1hdCgpPC90ZXh0PjxlbGxpcHNlIGN4PSI3MzUuNSIgY3k9IjY5OC45NjA5IiBmaWxsPSIjODRCRTg0IiByeD0iMyIgcnk9IjMiIHN0eWxlPSJzdHJva2U6IzAzODA0ODtzdHJva2Utd2lkdGg6MS4wOyIvPjx0ZXh0IGZpbGw9IiMwMDAwMDAiIGZvbnQtZmFtaWx5PSJzYW5zLXNlcmlmIiBmb250LXNpemU9IjE0IiBsZW5ndGhBZGp1c3Q9InNwYWNpbmciIHRleHRMZW5ndGg9IjE4NCIgeD0iNzQ0LjUiIHk9IjcwMy4yMDMxIj5NYXQoc2l6ZTogU2l6ZSwgdHlwZTogaW50KTwvdGV4dD48L2c+PCEtLWNsYXNzIENhc2NhZGVDbGFzc2lmaWVyLS0+PGcgaWQ9ImVsZW1fQ2FzY2FkZUNsYXNzaWZpZXIiPjxyZWN0IGNvZGVMaW5lPSI3MSIgZmlsbD0iI0YxRjFGMSIgaGVpZ2h0PSI5Mi45NTMxIiBpZD0iQ2FzY2FkZUNsYXNzaWZpZXIiIHJ4PSIyLjUiIHJ5PSIyLjUiIHN0eWxlPSJzdHJva2U6IzE4MTgxODtzdHJva2Utd2lkdGg6MC41OyIgd2lkdGg9IjM5MyIgeD0iMjIwIiB5PSI2MTYiLz48ZWxsaXBzZSBjeD0iMzUyLjc1IiBjeT0iNjMyIiBmaWxsPSIjQUREMUIyIiByeD0iMTEiIHJ5PSIxMSIgc3R5bGU9InN0cm9rZTojMTgxODE4O3N0cm9rZS13aWR0aDoxLjA7Ii8+PHBhdGggZD0iTTM1MC4zNzUsNjM2LjI1IEwzNTAuMzc1LDYzOCBMMzU1LjMxMjUsNjM4IEwzNTUuMzEyNSw2MzYuMjUgTDM1MC4zNzUsNjM2LjI1IFogTTM1MS4wNjI1LDYzNi45Mzc1IFEzNTEuMDYyNSw2MzYuOTM3NSAzNTEuMDYyNSw2MjcuNzUgTDM0OS4zMTI1LDYyNy43NSBRMzQ5LjMxMjUsNjI3Ljc1IDM0OS4zMTI1LDYzNi45Mzc1IEwzNTEuMDYyNSw2MzYuOTM3NSBaIE0zNTQuNjI1LDYzNi45Mzc1IEwzNTYuMzc1LDYzNi45Mzc1IFEzNTYuMzc1LDYzNi45Mzc1IDM1Ni4zNzUsNjM0LjEyNSBMMzU0LjYyNSw2MzQuMTI1IFEzNTQuNjI1LDYzNC4xMjUgMzU0LjYyNSw2MzYuOTM3NSBaIE0zNTQuNjI1LDYyNy43NSBRMzU0LjYyNSw2MjcuNzUgMzU0LjYyNSw2MzAuNTYyNSBMMzU2LjM3NSw2MzAuNTYyNSBRMzU2LjM3NSw2MzAuNTYyNSAzNTYuMzc1LDYyNy43NSBMMzU0LjYyNSw2MjcuNzUgWiBNMzUwLjM3NSw2MjguNDM3NSBMMzU1LjMxMjUsNjI4LjQzNzUgTDM1NS4zMTI1LDYyNi42ODc1IEwzNTAuMzc1LDYyNi42ODc1IEwzNTAuMzc1LDYyOC40Mzc1IFogIiBmaWxsPSIjMDAwMDAwIi8+PHRleHQgZmlsbD0iIzAwMDAwMCIgZm9udC1mYW1pbHk9InNhbnMtc2VyaWYiIGZvbnQtc2l6ZT0iMTQiIGxlbmd0aEFkanVzdD0ic3BhY2luZyIgdGV4dExlbmd0aD0iMTE5IiB4PSIzNzMuMjUiIHk9IjYzNy43NDIyIj5DYXNjYWRlQ2xhc3NpZmllcjwvdGV4dD48bGluZSBzdHlsZT0ic3Ryb2tlOiMxODE4MTg7c3Ryb2tlLXdpZHRoOjAuNTsiIHgxPSIyMjEiIHgyPSI2MTIiIHkxPSI2NDgiIHkyPSI2NDgiLz48bGluZSBzdHlsZT0ic3Ryb2tlOiMxODE4MTg7c3Ryb2tlLXdpZHRoOjAuNTsiIHgxPSIyMjEiIHgyPSI2MTIiIHkxPSI2NTYiIHkyPSI2NTYiLz48ZWxsaXBzZSBjeD0iMjMxIiBjeT0iNjY4Ljk5MjIiIGZpbGw9IiM4NEJFODQiIHJ4PSIzIiByeT0iMyIgc3R5bGU9InN0cm9rZTojMDM4MDQ4O3N0cm9rZS13aWR0aDoxLjA7Ii8+PHRleHQgZmlsbD0iIzAwMDAwMCIgZm9udC1mYW1pbHk9InNhbnMtc2VyaWYiIGZvbnQtc2l6ZT0iMTQiIGxlbmd0aEFkanVzdD0ic3BhY2luZyIgdGV4dExlbmd0aD0iMjg5IiB4PSIyNDAiIHk9IjY3My4yMzQ0Ij5DYXNjYWRlQ2xhc3NpZmllcihmaWxlUGF0aDogU3RyaW5nKTogdm9pZDwvdGV4dD48ZWxsaXBzZSBjeD0iMjMxIiBjeT0iNjgzLjk3NjYiIGZpbGw9IiM4NEJFODQiIHJ4PSIzIiByeT0iMyIgc3R5bGU9InN0cm9rZTojMDM4MDQ4O3N0cm9rZS13aWR0aDoxLjA7Ii8+PHRleHQgZmlsbD0iIzAwMDAwMCIgZm9udC1mYW1pbHk9InNhbnMtc2VyaWYiIGZvbnQtc2l6ZT0iMTQiIGxlbmd0aEFkanVzdD0ic3BhY2luZyIgdGV4dExlbmd0aD0iMzY3IiB4PSIyNDAiIHk9IjY4OC4yMTg4Ij5kZXRlY3RNdWx0aVNjYWxlKGltYWdlOiBNYXQsIGZhY2VzOiBNYXRPZlJlY3QpOiB2b2lkPC90ZXh0PjxlbGxpcHNlIGN4PSIyMzEiIGN5PSI2OTguOTYwOSIgZmlsbD0iIzg0QkU4NCIgcng9IjMiIHJ5PSIzIiBzdHlsZT0ic3Ryb2tlOiMwMzgwNDg7c3Ryb2tlLXdpZHRoOjEuMDsiLz48dGV4dCBmaWxsPSIjMDAwMDAwIiBmb250LWZhbWlseT0ic2Fucy1zZXJpZiIgZm9udC1zaXplPSIxNCIgbGVuZ3RoQWRqdXN0PSJzcGFjaW5nIiB0ZXh0TGVuZ3RoPSI5NCIgeD0iMjQwIiB5PSI3MDMuMjAzMSI+ZW1wdHkoKTogYm9vbDwvdGV4dD48L2c+PCEtLWNsYXNzIE1hdE9mUmVjdC0tPjxnIGlkPSJlbGVtX01hdE9mUmVjdCI+PHJlY3QgY29kZUxpbmU9Ijc3IiBmaWxsPSIjRjFGMUYxIiBoZWlnaHQ9IjE5Ny44NDM4IiBpZD0iTWF0T2ZSZWN0IiByeD0iMi41IiByeT0iMi41IiBzdHlsZT0ic3Ryb2tlOiMxODE4MTg7c3Ryb2tlLXdpZHRoOjAuNTsiIHdpZHRoPSIyNjciIHg9IjI3OSIgeT0iODkyIi8+PGVsbGlwc2UgY3g9IjM3Ni43NSIgY3k9IjkwOCIgZmlsbD0iI0FERDFCMiIgcng9IjExIiByeT0iMTEiIHN0eWxlPSJzdHJva2U6IzE4MTgxODtzdHJva2Utd2lkdGg6MS4wOyIvPjxwYXRoIGQ9Ik0zNzQuMzc1LDkxMi4yNSBMMzc0LjM3NSw5MTQgTDM3OS4zMTI1LDkxNCBMMzc5LjMxMjUsOTEyLjI1IEwzNzQuMzc1LDkxMi4yNSBaIE0zNzUuMDYyNSw5MTIuOTM3NSBRMzc1LjA2MjUsOTEyLjkzNzUgMzc1LjA2MjUsOTAzLjc1IEwzNzMuMzEyNSw5MDMuNzUgUTM3My4zMTI1LDkwMy43NSAzNzMuMzEyNSw5MTIuOTM3NSBMMzc1LjA2MjUsOTEyLjkzNzUgWiBNMzc4LjYyNSw5MTIuOTM3NSBMMzgwLjM3NSw5MTIuOTM3NSBRMzgwLjM3NSw5MTIuOTM3NSAzODAuMzc1LDkxMC4xMjUgTDM3OC42MjUsOTEwLjEyNSBRMzc4LjYyNSw5MTAuMTI1IDM3OC42MjUsOTEyLjkzNzUgWiBNMzc4LjYyNSw5MDMuNzUgUTM3OC42MjUsOTAzLjc1IDM3OC42MjUsOTA2LjU2MjUgTDM4MC4zNzUsOTA2LjU2MjUgUTM4MC4zNzUsOTA2LjU2MjUgMzgwLjM3NSw5MDMuNzUgTDM3OC42MjUsOTAzLjc1IFogTTM3NC4zNzUsOTA0LjQzNzUgTDM3OS4zMTI1LDkwNC40Mzc1IEwzNzkuMzEyNSw5MDIuNjg3NSBMMzc0LjM3NSw5MDIuNjg3NSBMMzc0LjM3NSw5MDQuNDM3NSBaICIgZmlsbD0iIzAwMDAwMCIvPjx0ZXh0IGZpbGw9IiMwMDAwMDAiIGZvbnQtZmFtaWx5PSJzYW5zLXNlcmlmIiBmb250LXNpemU9IjE0IiBsZW5ndGhBZGp1c3Q9InNwYWNpbmciIHRleHRMZW5ndGg9IjYzIiB4PSIzOTcuMjUiIHk9IjkxMy43NDIyIj5NYXRPZlJlY3Q8L3RleHQ+PGxpbmUgc3R5bGU9InN0cm9rZTojMTgxODE4O3N0cm9rZS13aWR0aDowLjU7IiB4MT0iMjgwIiB4Mj0iNTQ1IiB5MT0iOTI0IiB5Mj0iOTI0Ii8+PHJlY3QgZmlsbD0ibm9uZSIgaGVpZ2h0PSI2IiBzdHlsZT0ic3Ryb2tlOiNDODI5MzA7c3Ryb2tlLXdpZHRoOjEuMDsiIHdpZHRoPSI2IiB4PSIyODciIHk9IjkzMy45OTIyIi8+PHRleHQgZmlsbD0iIzAwMDAwMCIgZm9udC1mYW1pbHk9InNhbnMtc2VyaWYiIGZvbnQtc2l6ZT0iMTQiIGxlbmd0aEFkanVzdD0ic3BhY2luZyIgdGV4dExlbmd0aD0iMTEyIiB4PSIyOTkiIHk9Ijk0MS4yMzQ0Ij5kYXRhOiBMaXN0Jmx0O1JlY3QmZ3Q7PC90ZXh0PjxsaW5lIHN0eWxlPSJzdHJva2U6IzE4MTgxODtzdHJva2Utd2lkdGg6MC41OyIgeDE9IjI4MCIgeDI9IjU0NSIgeTE9Ijk0Ni45ODQ0IiB5Mj0iOTQ2Ljk4NDQiLz48ZWxsaXBzZSBjeD0iMjkwIiBjeT0iOTU5Ljk3NjYiIGZpbGw9IiM4NEJFODQiIHJ4PSIzIiByeT0iMyIgc3R5bGU9InN0cm9rZTojMDM4MDQ4O3N0cm9rZS13aWR0aDoxLjA7Ii8+PHRleHQgZmlsbD0iIzAwMDAwMCIgZm9udC1mYW1pbHk9InNhbnMtc2VyaWYiIGZvbnQtc2l6ZT0iMTQiIGxlbmd0aEFkanVzdD0ic3BhY2luZyIgdGV4dExlbmd0aD0iNzkiIHg9IjI5OSIgeT0iOTY0LjIxODgiPk1hdE9mUmVjdCgpPC90ZXh0PjxlbGxpcHNlIGN4PSIyOTAiIGN5PSI5NzQuOTYwOSIgZmlsbD0iIzg0QkU4NCIgcng9IjMiIHJ5PSIzIiBzdHlsZT0ic3Ryb2tlOiMwMzgwNDg7c3Ryb2tlLXdpZHRoOjEuMDsiLz48dGV4dCBmaWxsPSIjMDAwMDAwIiBmb250LWZhbWlseT0ic2Fucy1zZXJpZiIgZm9udC1zaXplPSIxNCIgbGVuZ3RoQWRqdXN0PSJzcGFjaW5nIiB0ZXh0TGVuZ3RoPSIxMTUiIHg9IjI5OSIgeT0iOTc5LjIwMzEiPk1hdE9mUmVjdChNYXQgbSk8L3RleHQ+PGVsbGlwc2UgY3g9IjI5MCIgY3k9Ijk4OS45NDUzIiBmaWxsPSIjODRCRTg0IiByeD0iMyIgcnk9IjMiIHN0eWxlPSJzdHJva2U6IzAzODA0ODtzdHJva2Utd2lkdGg6MS4wOyIvPjx0ZXh0IGZpbGw9IiMwMDAwMDAiIGZvbnQtZmFtaWx5PSJzYW5zLXNlcmlmIiBmb250LXNpemU9IjE0IiBsZW5ndGhBZGp1c3Q9InNwYWNpbmciIHRleHRMZW5ndGg9IjE0MiIgeD0iMjk5IiB5PSI5OTQuMTg3NSI+TWF0T2ZSZWN0KFJlY3QuLi4gYSk8L3RleHQ+PGVsbGlwc2UgY3g9IjI5MCIgY3k9IjEwMDQuOTI5NyIgZmlsbD0iIzg0QkU4NCIgcng9IjMiIHJ5PSIzIiBzdHlsZT0ic3Ryb2tlOiMwMzgwNDg7c3Ryb2tlLXdpZHRoOjEuMDsiLz48dGV4dCBmaWxsPSIjMDAwMDAwIiBmb250LWZhbWlseT0ic2Fucy1zZXJpZiIgZm9udC1zaXplPSIxNCIgbGVuZ3RoQWRqdXN0PSJzcGFjaW5nIiB0ZXh0TGVuZ3RoPSIxNjMiIHg9IjI5OSIgeT0iMTAwOS4xNzE5Ij5NYXRPZlJlY3QoTGlzdCZsdDtSZWN0Jmd0OyBsKTwvdGV4dD48ZWxsaXBzZSBjeD0iMjkwIiBjeT0iMTAxOS45MTQxIiBmaWxsPSIjODRCRTg0IiByeD0iMyIgcnk9IjMiIHN0eWxlPSJzdHJva2U6IzAzODA0ODtzdHJva2Utd2lkdGg6MS4wOyIvPjx0ZXh0IGZpbGw9IiMwMDAwMDAiIGZvbnQtZmFtaWx5PSJzYW5zLXNlcmlmIiBmb250LXNpemU9IjE0IiBsZW5ndGhBZGp1c3Q9InNwYWNpbmciIHRleHRMZW5ndGg9IjE1NiIgeD0iMjk5IiB5PSIxMDI0LjE1NjMiPmFsbG9jKHNpemU6IGludCk6IHZvaWQ8L3RleHQ+PGVsbGlwc2UgY3g9IjI5MCIgY3k9IjEwMzQuODk4NCIgZmlsbD0iIzg0QkU4NCIgcng9IjMiIHJ5PSIzIiBzdHlsZT0ic3Ryb2tlOiMwMzgwNDg7c3Ryb2tlLXdpZHRoOjEuMDsiLz48dGV4dCBmaWxsPSIjMDAwMDAwIiBmb250LWZhbWlseT0ic2Fucy1zZXJpZiIgZm9udC1zaXplPSIxNCIgbGVuZ3RoQWRqdXN0PSJzcGFjaW5nIiB0ZXh0TGVuZ3RoPSIyMjciIHg9IjI5OSIgeT0iMTAzOS4xNDA2Ij5mcm9tQXJyYXkoYTogUmVjdC4uLik6IE1hdE9mUmVjdDwvdGV4dD48ZWxsaXBzZSBjeD0iMjkwIiBjeT0iMTA0OS44ODI4IiBmaWxsPSIjODRCRTg0IiByeD0iMyIgcnk9IjMiIHN0eWxlPSJzdHJva2U6IzAzODA0ODtzdHJva2Utd2lkdGg6MS4wOyIvPjx0ZXh0IGZpbGw9IiMwMDAwMDAiIGZvbnQtZmFtaWx5PSJzYW5zLXNlcmlmIiBmb250LXNpemU9IjE0IiBsZW5ndGhBZGp1c3Q9InNwYWNpbmciIHRleHRMZW5ndGg9IjI0MSIgeD0iMjk5IiB5PSIxMDU0LjEyNSI+ZnJvbUxpc3QobDogTGlzdCZsdDtSZWN0Jmd0Oyk6IE1hdE9mUmVjdDwvdGV4dD48ZWxsaXBzZSBjeD0iMjkwIiBjeT0iMTA2NC44NjcyIiBmaWxsPSIjODRCRTg0IiByeD0iMyIgcnk9IjMiIHN0eWxlPSJzdHJva2U6IzAzODA0ODtzdHJva2Utd2lkdGg6MS4wOyIvPjx0ZXh0IGZpbGw9IiMwMDAwMDAiIGZvbnQtZmFtaWx5PSJzYW5zLXNlcmlmIiBmb250LXNpemU9IjE0IiBsZW5ndGhBZGp1c3Q9InNwYWNpbmciIHRleHRMZW5ndGg9IjEyMSIgeD0iMjk5IiB5PSIxMDY5LjEwOTQiPnRvQXJyYXkoKTogUmVjdFtdPC90ZXh0PjxlbGxpcHNlIGN4PSIyOTAiIGN5PSIxMDc5Ljg1MTYiIGZpbGw9IiM4NEJFODQiIHJ4PSIzIiByeT0iMyIgc3R5bGU9InN0cm9rZTojMDM4MDQ4O3N0cm9rZS13aWR0aDoxLjA7Ii8+PHRleHQgZmlsbD0iIzAwMDAwMCIgZm9udC1mYW1pbHk9InNhbnMtc2VyaWYiIGZvbnQtc2l6ZT0iMTQiIGxlbmd0aEFkanVzdD0ic3BhY2luZyIgdGV4dExlbmd0aD0iMTQyIiB4PSIyOTkiIHk9IjEwODQuMDkzOCI+dG9MaXN0KCk6IExpc3QmbHQ7UmVjdCZndDs8L3RleHQ+PC9nPjwhLS1jbGFzcyBWaWRlb0NhcHR1cmUtLT48ZyBpZD0iZWxlbV9WaWRlb0NhcHR1cmUiPjxyZWN0IGNvZGVMaW5lPSI5MCIgZmlsbD0iI0YxRjFGMSIgaGVpZ2h0PSIxMzcuOTA2MyIgaWQ9IlZpZGVvQ2FwdHVyZSIgcng9IjIuNSIgcnk9IjIuNSIgc3R5bGU9InN0cm9rZTojMTgxODE4O3N0cm9rZS13aWR0aDowLjU7IiB3aWR0aD0iMjQ1IiB4PSI1MDUiIHk9IjQwMyIvPjxlbGxpcHNlIGN4PSI1ODEuMjUiIGN5PSI0MTkiIGZpbGw9IiNBREQxQjIiIHJ4PSIxMSIgcnk9IjExIiBzdHlsZT0ic3Ryb2tlOiMxODE4MTg7c3Ryb2tlLXdpZHRoOjEuMDsiLz48cGF0aCBkPSJNNTc4Ljg3NSw0MjMuMjUgTDU3OC44NzUsNDI1IEw1ODMuODEyNSw0MjUgTDU4My44MTI1LDQyMy4yNSBMNTc4Ljg3NSw0MjMuMjUgWiBNNTc5LjU2MjUsNDIzLjkzNzUgUTU3OS41NjI1LDQyMy45Mzc1IDU3OS41NjI1LDQxNC43NSBMNTc3LjgxMjUsNDE0Ljc1IFE1NzcuODEyNSw0MTQuNzUgNTc3LjgxMjUsNDIzLjkzNzUgTDU3OS41NjI1LDQyMy45Mzc1IFogTTU4My4xMjUsNDIzLjkzNzUgTDU4NC44NzUsNDIzLjkzNzUgUTU4NC44NzUsNDIzLjkzNzUgNTg0Ljg3NSw0MjEuMTI1IEw1ODMuMTI1LDQyMS4xMjUgUTU4My4xMjUsNDIxLjEyNSA1ODMuMTI1LDQyMy45Mzc1IFogTTU4My4xMjUsNDE0Ljc1IFE1ODMuMTI1LDQxNC43NSA1ODMuMTI1LDQxNy41NjI1IEw1ODQuODc1LDQxNy41NjI1IFE1ODQuODc1LDQxNy41NjI1IDU4NC44NzUsNDE0Ljc1IEw1ODMuMTI1LDQxNC43NSBaIE01NzguODc1LDQxNS40Mzc1IEw1ODMuODEyNSw0MTUuNDM3NSBMNTgzLjgxMjUsNDEzLjY4NzUgTDU3OC44NzUsNDEzLjY4NzUgTDU3OC44NzUsNDE1LjQzNzUgWiAiIGZpbGw9IiMwMDAwMDAiLz48dGV4dCBmaWxsPSIjMDAwMDAwIiBmb250LWZhbWlseT0ic2Fucy1zZXJpZiIgZm9udC1zaXplPSIxNCIgbGVuZ3RoQWRqdXN0PSJzcGFjaW5nIiB0ZXh0TGVuZ3RoPSI4NCIgeD0iNjAxLjc1IiB5PSI0MjQuNzQyMiI+VmlkZW9DYXB0dXJlPC90ZXh0PjxsaW5lIHN0eWxlPSJzdHJva2U6IzE4MTgxODtzdHJva2Utd2lkdGg6MC41OyIgeDE9IjUwNiIgeDI9Ijc0OSIgeTE9IjQzNSIgeTI9IjQzNSIvPjxyZWN0IGZpbGw9Im5vbmUiIGhlaWdodD0iNiIgc3R5bGU9InN0cm9rZTojQzgyOTMwO3N0cm9rZS13aWR0aDoxLjA7IiB3aWR0aD0iNiIgeD0iNTEzIiB5PSI0NDQuOTkyMiIvPjx0ZXh0IGZpbGw9IiMwMDAwMDAiIGZvbnQtZmFtaWx5PSJzYW5zLXNlcmlmIiBmb250LXNpemU9IjE0IiBsZW5ndGhBZGp1c3Q9InNwYWNpbmciIHRleHRMZW5ndGg9Ijc3IiB4PSI1MjUiIHk9IjQ1Mi4yMzQ0Ij5zb3VyY2U6IGludDwvdGV4dD48cmVjdCBmaWxsPSJub25lIiBoZWlnaHQ9IjYiIHN0eWxlPSJzdHJva2U6I0M4MjkzMDtzdHJva2Utd2lkdGg6MS4wOyIgd2lkdGg9IjYiIHg9IjUxMyIgeT0iNDU5Ljk3NjYiLz48dGV4dCBmaWxsPSIjMDAwMDAwIiBmb250LWZhbWlseT0ic2Fucy1zZXJpZiIgZm9udC1zaXplPSIxNCIgbGVuZ3RoQWRqdXN0PSJzcGFjaW5nIiB0ZXh0TGVuZ3RoPSI5OCIgeD0iNTI1IiB5PSI0NjcuMjE4OCI+aXNPcGVuZWQ6IGJvb2w8L3RleHQ+PGxpbmUgc3R5bGU9InN0cm9rZTojMTgxODE4O3N0cm9rZS13aWR0aDowLjU7IiB4MT0iNTA2IiB4Mj0iNzQ5IiB5MT0iNDcyLjk2ODgiIHkyPSI0NzIuOTY4OCIvPjxlbGxpcHNlIGN4PSI1MTYiIGN5PSI0ODUuOTYwOSIgZmlsbD0iIzg0QkU4NCIgcng9IjMiIHJ5PSIzIiBzdHlsZT0ic3Ryb2tlOiMwMzgwNDg7c3Ryb2tlLXdpZHRoOjEuMDsiLz48dGV4dCBmaWxsPSIjMDAwMDAwIiBmb250LWZhbWlseT0ic2Fucy1zZXJpZiIgZm9udC1zaXplPSIxNCIgbGVuZ3RoQWRqdXN0PSJzcGFjaW5nIiB0ZXh0TGVuZ3RoPSIyMTkiIHg9IjUyNSIgeT0iNDkwLjIwMzEiPlZpZGVvQ2FwdHVyZShzb3VyY2U6IGludCk6IHZvaWQ8L3RleHQ+PGVsbGlwc2UgY3g9IjUxNiIgY3k9IjUwMC45NDUzIiBmaWxsPSIjODRCRTg0IiByeD0iMyIgcnk9IjMiIHN0eWxlPSJzdHJva2U6IzAzODA0ODtzdHJva2Utd2lkdGg6MS4wOyIvPjx0ZXh0IGZpbGw9IiMwMDAwMDAiIGZvbnQtZmFtaWx5PSJzYW5zLXNlcmlmIiBmb250LXNpemU9IjE0IiBsZW5ndGhBZGp1c3Q9InNwYWNpbmciIHRleHRMZW5ndGg9IjE1NyIgeD0iNTI1IiB5PSI1MDUuMTg3NSI+cmVhZChmcmFtZTogTWF0KTogYm9vbDwvdGV4dD48ZWxsaXBzZSBjeD0iNTE2IiBjeT0iNTE1LjkyOTciIGZpbGw9IiM4NEJFODQiIHJ4PSIzIiByeT0iMyIgc3R5bGU9InN0cm9rZTojMDM4MDQ4O3N0cm9rZS13aWR0aDoxLjA7Ii8+PHRleHQgZmlsbD0iIzAwMDAwMCIgZm9udC1mYW1pbHk9InNhbnMtc2VyaWYiIGZvbnQtc2l6ZT0iMTQiIGxlbmd0aEFkanVzdD0ic3BhY2luZyIgdGV4dExlbmd0aD0iMTYzIiB4PSI1MjUiIHk9IjUyMC4xNzE5Ij5vcGVuKHNvdXJjZTogaW50KTogYm9vbDwvdGV4dD48ZWxsaXBzZSBjeD0iNTE2IiBjeT0iNTMwLjkxNDEiIGZpbGw9IiM4NEJFODQiIHJ4PSIzIiByeT0iMyIgc3R5bGU9InN0cm9rZTojMDM4MDQ4O3N0cm9rZS13aWR0aDoxLjA7Ii8+PHRleHQgZmlsbD0iIzAwMDAwMCIgZm9udC1mYW1pbHk9InNhbnMtc2VyaWYiIGZvbnQtc2l6ZT0iMTQiIGxlbmd0aEFkanVzdD0ic3BhY2luZyIgdGV4dExlbmd0aD0iMTA3IiB4PSI1MjUiIHk9IjUzNS4xNTYzIj5yZWxlYXNlKCk6IHZvaWQ8L3RleHQ+PC9nPjwhLS1yZXZlcnNlIGxpbmsgRmFjZVJlY29nbml0aW9uQXBwIHRvIEZhY2VSZWNvZ25pdGlvbkNvbnRyb2xsZXItLT48ZyBpZD0ibGlua19GYWNlUmVjb2duaXRpb25BcHBfRmFjZVJlY29nbml0aW9uQ29udHJvbGxlciI+PHBhdGggY29kZUxpbmU9Ijk5IiBkPSJNNDU5LjUsOTcuMjYgQzQ1OS41LDExOC41MyA0NTkuNSwxMzMuODkgNDU5LjUsMTU5LjgzICIgZmlsbD0ibm9uZSIgaWQ9IkZhY2VSZWNvZ25pdGlvbkFwcC1iYWNrdG8tRmFjZVJlY29nbml0aW9uQ29udHJvbGxlciIgc3R5bGU9InN0cm9rZTojMTgxODE4O3N0cm9rZS13aWR0aDoxLjA7Ii8+PHBvbHlnb24gZmlsbD0iIzE4MTgxOCIgcG9pbnRzPSI0NTkuNSw4NS4yNiw0NTUuNSw5MS4yNiw0NTkuNSw5Ny4yNiw0NjMuNSw5MS4yNiw0NTkuNSw4NS4yNiIgc3R5bGU9InN0cm9rZTojMTgxODE4O3N0cm9rZS13aWR0aDoxLjA7Ii8+PHRleHQgZmlsbD0iIzAwMDAwMCIgZm9udC1mYW1pbHk9InNhbnMtc2VyaWYiIGZvbnQtc2l6ZT0iMTMiIGxlbmd0aEFkanVzdD0ic3BhY2luZyIgdGV4dExlbmd0aD0iMjEiIHg9IjQ2MC41IiB5PSIxMjguMjg5MSI+aGFzPC90ZXh0PjwvZz48IS0tcmV2ZXJzZSBsaW5rIEZhY2VSZWNvZ25pdGlvbkNvbnRyb2xsZXIgdG8gRmFjZVJlY29nbml0aW9uU2VydmljZS0tPjxnIGlkPSJsaW5rX0ZhY2VSZWNvZ25pdGlvbkNvbnRyb2xsZXJfRmFjZVJlY29nbml0aW9uU2VydmljZSI+PHBhdGggY29kZUxpbmU9IjEwMCIgZD0iTTM5MC41MDA5LDMzNy44MjA1IEMzNjYuMDgwOSwzNzAuNjcwNSAzNDYuMTMsMzk3LjUxIDMyNS40Miw0MjUuMzcgIiBmaWxsPSJub25lIiBpZD0iRmFjZVJlY29nbml0aW9uQ29udHJvbGxlci1iYWNrdG8tRmFjZVJlY29nbml0aW9uU2VydmljZSIgc3R5bGU9InN0cm9rZTojMTgxODE4O3N0cm9rZS13aWR0aDoxLjA7Ii8+PHBvbHlnb24gZmlsbD0iIzE4MTgxOCIgcG9pbnRzPSIzOTcuNjYsMzI4LjE5LDM5MC44NzAzLDMzMC42MTg5LDM5MC41MDA5LDMzNy44MjA1LDM5Ny4yOTA2LDMzNS4zOTE2LDM5Ny42NiwzMjguMTkiIHN0eWxlPSJzdHJva2U6IzE4MTgxODtzdHJva2Utd2lkdGg6MS4wOyIvPjx0ZXh0IGZpbGw9IiMwMDAwMDAiIGZvbnQtZmFtaWx5PSJzYW5zLXNlcmlmIiBmb250LXNpemU9IjEzIiBsZW5ndGhBZGp1c3Q9InNwYWNpbmciIHRleHRMZW5ndGg9IjI4IiB4PSIzNzYuNSIgeT0iMzcxLjI4OTEiPnVzZXM8L3RleHQ+PC9nPjwhLS1yZXZlcnNlIGxpbmsgRmFjZVJlY29nbml0aW9uQ29udHJvbGxlciB0byBWaWRlb0NhcHR1cmUtLT48ZyBpZD0ibGlua19GYWNlUmVjb2duaXRpb25Db250cm9sbGVyX1ZpZGVvQ2FwdHVyZSI+PHBhdGggY29kZUxpbmU9IjEwMSIgZD0iTTUyOC41MDEsMzM3LjgxOTEgQzU0Ni43NTEsMzYyLjM1OTEgNTU5LjMzLDM3OS4zIDU3Ni43OSw0MDIuNzggIiBmaWxsPSJub25lIiBpZD0iRmFjZVJlY29nbml0aW9uQ29udHJvbGxlci1iYWNrdG8tVmlkZW9DYXB0dXJlIiBzdHlsZT0ic3Ryb2tlOiMxODE4MTg7c3Ryb2tlLXdpZHRoOjEuMDsiLz48cG9seWdvbiBmaWxsPSIjMTgxODE4IiBwb2ludHM9IjUyMS4zNCwzMjguMTksNTIxLjcxMDgsMzM1LjM5MTYsNTI4LjUwMSwzMzcuODE5MSw1MjguMTMwMiwzMzAuNjE3Niw1MjEuMzQsMzI4LjE5IiBzdHlsZT0ic3Ryb2tlOiMxODE4MTg7c3Ryb2tlLXdpZHRoOjEuMDsiLz48dGV4dCBmaWxsPSIjMDAwMDAwIiBmb250LWZhbWlseT0ic2Fucy1zZXJpZiIgZm9udC1zaXplPSIxMyIgbGVuZ3RoQWRqdXN0PSJzcGFjaW5nIiB0ZXh0TGVuZ3RoPSIyOCIgeD0iNTU1LjUiIHk9IjM3MS4yODkxIj51c2VzPC90ZXh0PjwvZz48IS0tcmV2ZXJzZSBsaW5rIEZhY2VSZWNvZ25pdGlvblNlcnZpY2UgdG8gRmFjZURldGVjdGlvblJlc3VsdC0tPjxnIGlkPSJsaW5rX0ZhY2VSZWNvZ25pdGlvblNlcnZpY2VfRmFjZURldGVjdGlvblJlc3VsdCI+PHBhdGggY29kZUxpbmU9IjEwMiIgZD0iTTI0OS43NTc0LDUyOC4zNjMxIEMyMzAuODQ3NCw1NTUuMzEzMSAyMTUuNjEsNTgxLjEgMjAyLjUsNjE2IEMxODcuNjgsNjU1LjQzIDE4MC4xOCw3MDIuMzUgMTc2LjM4LDczOC44NyAiIGZpbGw9Im5vbmUiIGlkPSJGYWNlUmVjb2duaXRpb25TZXJ2aWNlLWJhY2t0by1GYWNlRGV0ZWN0aW9uUmVzdWx0IiBzdHlsZT0ic3Ryb2tlOiMxODE4MTg7c3Ryb2tlLXdpZHRoOjEuMDsiLz48cG9seWdvbiBmaWxsPSIjMTgxODE4IiBwb2ludHM9IjI1Ni42NSw1MTguNTQsMjQ5LjkyOTQsNTIxLjE1NCwyNDkuNzU3NCw1MjguMzYzMSwyNTYuNDc4MSw1MjUuNzQ5MSwyNTYuNjUsNTE4LjU0IiBzdHlsZT0ic3Ryb2tlOiMxODE4MTg7c3Ryb2tlLXdpZHRoOjEuMDsiLz48dGV4dCBmaWxsPSIjMDAwMDAwIiBmb250LWZhbWlseT0ic2Fucy1zZXJpZiIgZm9udC1zaXplPSIxMyIgbGVuZ3RoQWRqdXN0PSJzcGFjaW5nIiB0ZXh0TGVuZ3RoPSI0OCIgeD0iMjI0LjUiIHk9IjU4NC4yODkxIj5yZXR1cm5zPC90ZXh0PjwvZz48IS0tcmV2ZXJzZSBsaW5rIEZhY2VSZWNvZ25pdGlvblNlcnZpY2UgdG8gQ2FzY2FkZUNsYXNzaWZpZXItLT48ZyBpZD0ibGlua19GYWNlUmVjb2duaXRpb25TZXJ2aWNlX0Nhc2NhZGVDbGFzc2lmaWVyIj48cGF0aCBjb2RlTGluZT0iMTAzIiBkPSJNMzI4LjM5MTQsNTI4LjYzMTIgQzM0Ny45NzE0LDU1OC4xNjEyIDM2Ni43Myw1ODYuNDUgMzg2LjMsNjE1Ljk2ICIgZmlsbD0ibm9uZSIgaWQ9IkZhY2VSZWNvZ25pdGlvblNlcnZpY2UtYmFja3RvLUNhc2NhZGVDbGFzc2lmaWVyIiBzdHlsZT0ic3Ryb2tlOiMxODE4MTg7c3Ryb2tlLXdpZHRoOjEuMDsiLz48cG9seWdvbiBmaWxsPSIjMTgxODE4IiBwb2ludHM9IjMyMS43Niw1MTguNjMsMzIxLjc0MTksNTI1Ljg0MTEsMzI4LjM5MTQsNTI4LjYzMTIsMzI4LjQwOTQsNTIxLjQyMDIsMzIxLjc2LDUxOC42MyIgc3R5bGU9InN0cm9rZTojMTgxODE4O3N0cm9rZS13aWR0aDoxLjA7Ii8+PHRleHQgZmlsbD0iIzAwMDAwMCIgZm9udC1mYW1pbHk9InNhbnMtc2VyaWYiIGZvbnQtc2l6ZT0iMTMiIGxlbmd0aEFkanVzdD0ic3BhY2luZyIgdGV4dExlbmd0aD0iMjgiIHg9IjM2Ni41IiB5PSI1ODQuMjg5MSI+dXNlczwvdGV4dD48L2c+PCEtLXJldmVyc2UgbGluayBJbWFnZUxvYWRlciB0byBNYXQtLT48ZyBpZD0ibGlua19JbWFnZUxvYWRlcl9NYXQiPjxwYXRoIGNvZGVMaW5lPSIxMDQiIGQ9Ik04OTguNjMxNyw1MTQuODM5IEM4ODYuMzkxNyw1NDUuMTg5IDg3Miw1ODAuODkgODU3Ljk5LDYxNS42NSAiIGZpbGw9Im5vbmUiIGlkPSJJbWFnZUxvYWRlci1iYWNrdG8tTWF0IiBzdHlsZT0ic3Ryb2tlOiMxODE4MTg7c3Ryb2tlLXdpZHRoOjEuMDsiLz48cG9seWdvbiBmaWxsPSIjMTgxODE4IiBwb2ludHM9IjkwMy4xMiw1MDMuNzEsODk3LjE2NjIsNTA3Ljc3ODQsODk4LjYzMTcsNTE0LjgzOSw5MDQuNTg1NSw1MTAuNzcwNiw5MDMuMTIsNTAzLjcxIiBzdHlsZT0ic3Ryb2tlOiMxODE4MTg7c3Ryb2tlLXdpZHRoOjEuMDsiLz48dGV4dCBmaWxsPSIjMDAwMDAwIiBmb250LWZhbWlseT0ic2Fucy1zZXJpZiIgZm9udC1zaXplPSIxMyIgbGVuZ3RoQWRqdXN0PSJzcGFjaW5nIiB0ZXh0TGVuZ3RoPSI0OCIgeD0iODc2LjUiIHk9IjU4NC4yODkxIj5yZXR1cm5zPC90ZXh0PjwvZz48IS0tcmV2ZXJzZSBsaW5rIEZhY2VEZXRlY3Rpb25SZXN1bHQgdG8gUmVjdC0tPjxnIGlkPSJsaW5rX0ZhY2VEZXRlY3Rpb25SZXN1bHRfUmVjdCI+PHBhdGggY29kZUxpbmU9IjEwNSIgZD0iTTE3OC42NjMyLDg3NC4yNjcyIEMxODUuMDYzMiw5NDkuNzk3MiAxOTUuMTIsMTA2OC40OCAyMDMuMjcsMTE2NC42OCAiIGZpbGw9Im5vbmUiIGlkPSJGYWNlRGV0ZWN0aW9uUmVzdWx0LWJhY2t0by1SZWN0IiBzdHlsZT0ic3Ryb2tlOiMxODE4MTg7c3Ryb2tlLXdpZHRoOjEuMDsiLz48cG9seWdvbiBmaWxsPSIjMTgxODE4IiBwb2ludHM9IjE3Ny42NSw4NjIuMzEsMTc0LjE3MDksODY4LjYyNjMsMTc4LjY2MzIsODc0LjI2NzIsMTgyLjE0MjMsODY3Ljk1MDgsMTc3LjY1LDg2Mi4zMSIgc3R5bGU9InN0cm9rZTojMTgxODE4O3N0cm9rZS13aWR0aDoxLjA7Ii8+PHRleHQgZmlsbD0iIzAwMDAwMCIgZm9udC1mYW1pbHk9InNhbnMtc2VyaWYiIGZvbnQtc2l6ZT0iMTMiIGxlbmd0aEFkanVzdD0ic3BhY2luZyIgdGV4dExlbmd0aD0iNTQiIHg9IjE5Ny41IiB5PSI5OTYuNzg5MSI+Y29udGFpbnM8L3RleHQ+PC9nPjwhLS1yZXZlcnNlIGxpbmsgTWF0T2ZSZWN0IHRvIFJlY3QtLT48ZyBpZD0ibGlua19NYXRPZlJlY3RfUmVjdCI+PHBhdGggY29kZUxpbmU9IjEwNiIgZD0iTTMzOS4yMjY0LDExMDAuMDcyNyBDMzIyLjk1NjQsMTEyNC4wNzI3IDMxMi4wOSwxMTQwLjA5IDI5NS4yLDExNjUgIiBmaWxsPSJub25lIiBpZD0iTWF0T2ZSZWN0LWJhY2t0by1SZWN0IiBzdHlsZT0ic3Ryb2tlOiMxODE4MTg7c3Ryb2tlLXdpZHRoOjEuMDsiLz48cG9seWdvbiBmaWxsPSIjMTgxODE4IiBwb2ludHM9IjM0NS45NiwxMDkwLjE0LDMzOS4yODIzLDEwOTIuODYxOCwzMzkuMjI2NCwxMTAwLjA3MjcsMzQ1LjkwNDEsMTA5Ny4zNTA5LDM0NS45NiwxMDkwLjE0IiBzdHlsZT0ic3Ryb2tlOiMxODE4MTg7c3Ryb2tlLXdpZHRoOjEuMDsiLz48dGV4dCBmaWxsPSIjMDAwMDAwIiBmb250LWZhbWlseT0ic2Fucy1zZXJpZiIgZm9udC1zaXplPSIxMyIgbGVuZ3RoQWRqdXN0PSJzcGFjaW5nIiB0ZXh0TGVuZ3RoPSI1NCIgeD0iMzI2LjUiIHk9IjExMzMuMjg5MSI+Y29udGFpbnM8L3RleHQ+PC9nPjwhLS1yZXZlcnNlIGxpbmsgQ2FzY2FkZUNsYXNzaWZpZXIgdG8gTWF0T2ZSZWN0LS0+PGcgaWQ9ImxpbmtfQ2FzY2FkZUNsYXNzaWZpZXJfTWF0T2ZSZWN0Ij48cGF0aCBjb2RlTGluZT0iMTA3IiBkPSJNNDE1Ljc5MjMsNzIxLjIzOTEgQzQxNS4yMTIzLDc2OC4zNTkxIDQxNC40NCw4MzEuMjggNDEzLjcsODkxLjg3ICIgZmlsbD0ibm9uZSIgaWQ9IkNhc2NhZGVDbGFzc2lmaWVyLWJhY2t0by1NYXRPZlJlY3QiIHN0eWxlPSJzdHJva2U6IzE4MTgxODtzdHJva2Utd2lkdGg6MS4wOyIvPjxwb2x5Z29uIGZpbGw9IiMxODE4MTgiIHBvaW50cz0iNDE1Ljk0LDcwOS4yNCw0MTEuODY2NSw3MTUuMTkwMyw0MTUuNzkyMyw3MjEuMjM5MSw0MTkuODY1OCw3MTUuMjg4OCw0MTUuOTQsNzA5LjI0IiBzdHlsZT0ic3Ryb2tlOiMxODE4MTg7c3Ryb2tlLXdpZHRoOjEuMDsiLz48dGV4dCBmaWxsPSIjMDAwMDAwIiBmb250LWZhbWlseT0ic2Fucy1zZXJpZiIgZm9udC1zaXplPSIxMyIgbGVuZ3RoQWRqdXN0PSJzcGFjaW5nIiB0ZXh0TGVuZ3RoPSIyOCIgeD0iNDE3LjUiIHk9IjgwNi4yODkxIj51c2VzPC90ZXh0PjwvZz48IS0tcmV2ZXJzZSBsaW5rIFJlY3QgdG8gUG9pbnQtLT48ZyBpZD0ibGlua19SZWN0X1BvaW50Ij48cGF0aCBjb2RlTGluZT0iMTA4IiBkPSJNMTUwLjU1OTIsMTQxOC45MzQgQzEzOC4wMDkyLDE0NDUuMTU0IDEzMC41MywxNDYwLjc2IDEyMC4wMSwxNDgyLjczICIgZmlsbD0ibm9uZSIgaWQ9IlJlY3QtYmFja3RvLVBvaW50IiBzdHlsZT0ic3Ryb2tlOiMxODE4MTg7c3Ryb2tlLXdpZHRoOjEuMDsiLz48cG9seWdvbiBmaWxsPSIjMTgxODE4IiBwb2ludHM9IjE1NS43NCwxNDA4LjExLDE0OS41NDE2LDE0MTEuNzk1MSwxNTAuNTU5MiwxNDE4LjkzNCwxNTYuNzU3NiwxNDE1LjI0ODksMTU1Ljc0LDE0MDguMTEiIHN0eWxlPSJzdHJva2U6IzE4MTgxODtzdHJva2Utd2lkdGg6MS4wOyIvPjx0ZXh0IGZpbGw9IiMwMDAwMDAiIGZvbnQtZmFtaWx5PSJzYW5zLXNlcmlmIiBmb250LXNpemU9IjEzIiBsZW5ndGhBZGp1c3Q9InNwYWNpbmciIHRleHRMZW5ndGg9IjU0IiB4PSIxNDEuNSIgeT0iMTQ1MS4yODkxIj5jb250YWluczwvdGV4dD48L2c+PCEtLXJldmVyc2UgbGluayBSZWN0IHRvIFNpemUtLT48ZyBpZD0ibGlua19SZWN0X1NpemUiPjxwYXRoIGNvZGVMaW5lPSIxMDkiIGQ9Ik0yNzYuOTU3NywxNDE4LjkxNjMgQzI4OS42MTc3LDE0NDUuMTM2MyAyOTcuMTcsMTQ2MC43NiAzMDcuNzgsMTQ4Mi43MyAiIGZpbGw9Im5vbmUiIGlkPSJSZWN0LWJhY2t0by1TaXplIiBzdHlsZT0ic3Ryb2tlOiMxODE4MTg7c3Ryb2tlLXdpZHRoOjEuMDsiLz48cG9seWdvbiBmaWxsPSIjMTgxODE4IiBwb2ludHM9IjI3MS43NCwxNDA4LjExLDI3MC43NDY3LDE0MTUuMjUyNCwyNzYuOTU3NywxNDE4LjkxNjMsMjc3Ljk1MDksMTQxMS43NzM5LDI3MS43NCwxNDA4LjExIiBzdHlsZT0ic3Ryb2tlOiMxODE4MTg7c3Ryb2tlLXdpZHRoOjEuMDsiLz48dGV4dCBmaWxsPSIjMDAwMDAwIiBmb250LWZhbWlseT0ic2Fucy1zZXJpZiIgZm9udC1zaXplPSIxMyIgbGVuZ3RoQWRqdXN0PSJzcGFjaW5nIiB0ZXh0TGVuZ3RoPSI1NCIgeD0iMjkyLjUiIHk9IjE0NTEuMjg5MSI+Y29udGFpbnM8L3RleHQ+PC9nPjwhLS1yZXZlcnNlIGxpbmsgVmlkZW9DYXB0dXJlIHRvIE1hdC0tPjxnIGlkPSJsaW5rX1ZpZGVvQ2FwdHVyZV9NYXQiPjxwYXRoIGNvZGVMaW5lPSIxMTAiIGQ9Ik03MTMuMDA3Myw1NDkuMDI0MiBDNzQwLjk5NzMsNTczLjkxNDIgNzYyLjk5LDU5My40OCA3ODguMjUsNjE1LjkzICIgZmlsbD0ibm9uZSIgaWQ9IlZpZGVvQ2FwdHVyZS1iYWNrdG8tTWF0IiBzdHlsZT0ic3Ryb2tlOiMxODE4MTg7c3Ryb2tlLXdpZHRoOjEuMDsiLz48cG9seWdvbiBmaWxsPSIjMTgxODE4IiBwb2ludHM9IjcwNC4wNCw1NDEuMDUsNzA1Ljg2NTYsNTQ4LjAyNjIsNzEzLjAwNzMsNTQ5LjAyNDIsNzExLjE4MTcsNTQyLjA0OCw3MDQuMDQsNTQxLjA1IiBzdHlsZT0ic3Ryb2tlOiMxODE4MTg7c3Ryb2tlLXdpZHRoOjEuMDsiLz48dGV4dCBmaWxsPSIjMDAwMDAwIiBmb250LWZhbWlseT0ic2Fucy1zZXJpZiIgZm9udC1zaXplPSIxMyIgbGVuZ3RoQWRqdXN0PSJzcGFjaW5nIiB0ZXh0TGVuZ3RoPSI1NSIgeD0iNzUzLjUiIHk9IjU4NC4yODkxIj5jYXB0dXJlczwvdGV4dD48L2c+PCEtLVNSQz1bWkxORFFYaW40Qnh4QU5JSzZwa3ZCd0tHTjBvNVg4R09TV2F2QTVmdkJQMmJIUEFKa2dObHEzdjMzcHFMVWN3a2ZVX1hEd2QtTHpmVDl5dDFzUHNQeHZrUFJzU2FwOTFJTzhhbWtJNU9EOW5nQWxYdnN1QkY0czMtdmMxVGtYUTJRb2FPOHhCZ2VwZ05XdncwQlE4UzhqY2UyZ29xZkJvdmt2ek11NTdHVWw5YkNpNVpjSmtFT21NaVk3b2FjMG9vMXRpME9SR2I0Yk5XYmpQNEI1MmhUcEF3Z0JoUFNNd2dnUzIzNDJwS1VoR0VFMHFISVlFZmluME9VdWJrcUh4dGpiOVdlakhJY2hmd2hiSUZqUmtBWmVhSk1Zb0tNSTI1S010YTIweUIyd0hoY1p4MkUwVjRGZG45NlJiNlVYRV9LNm9zOWZmV1JSNEFxWXJnSjg5QmZBVFV6VlZFUVNYa1lEZW50VE54bUtQVTJDQ1JGenk5T0VSTHNKckZhU29IYmt0c2s4alVwSG5US0FOVmNkUnFrd296N1dPRU9jRE4zR2FqSktVT1dkQ1hUYnBSMENmcjU0RVlmbjRmb2E2c0xBZFFabnJ5M2xSdm9uRWpoRzJUT0tEZWl6NXZFaWtLZml3elVCZlBPOWZiOUJDUzdwNTg0YkhzVzlkV1JrdWlOUklQNEpTQmdjMVJXTWpYdVNMMmE2c2h6eDJxQVZoOWlRcENfczNJcDFlU0ZiV1VQNlQ5d2haTkwtS3Z5TjZmVVZ6TVRaX2pJNnFQWVZDX1g1c3Z5bEVOZXFBYzdFUEpYbkhkUC0zRnJ5RnBEbWhxdHItN3YtIC15Q0dTU3FGQm0tb1M3LUYzeTB1NmhibDM1UktYV2EyY1BWUlJZVVViY0dFelJxaXlxTUUycUdXQ0ZORlZOalpYSF9GOVVjYk1XQXVtT29TUHM1WFY5RjUtanhKSUtxRkFodm9odXcySHRaSkdRTVE4S2NCU1VCNVJBeFQxaVZxdkZKbTRRa1pmd21EOW1Db1BtNERDRlJMUi1NZWhqa1BIZTN2NlZUS0N5cFBoRG1ZbXRQQ0tmQ0dwS21oRTVwUmN4SnRPN0J1LUhmNVAtd0lKMWJEWDlKRjgxZlNoRTJ3Y0I1U2tuQ0NFS1ZQZTVoLTdRTllSbkNDZWVYNjdqR0pFbDk4bVdyTHIyZmtnSHNfX0RWRngyckxvMTNMQUp1X3VIVEJveEFoMUp2M0xpOFUwdThsQjVMRnJ4ZXBBRDZaWF80SlhTa1AwaWx5WGllMXRUYWg2VnBxUXYxUWRJbUpoZmpjUkNFcW1VQ1dMQ0EyTlhfSDZRNElJRkVtU3BIbzVWTHB4czVsS0ZdLS0+PC9nPjwvc3ZnPg==;" vertex="1" parent="1">
            <mxGeometry x="-120" y="-246.83" width="1163" height="1763.83" as="geometry" />
          </mxCell>
        </UserObject>
      </root>
    </mxGraphModel>
  </diagram>
</mxfile>
